<?xml version="1.0" encoding="utf-8"?>
<!-- Generator: Adobe Illustrator 21.1.0, SVG Export Plug-In . SVG Version: 6.00 Build 0)  -->
<svg version="1.1" id="图层_1" xmlns="http://www.w3.org/2000/svg" xmlns:xlink="http://www.w3.org/1999/xlink" x="0px" y="0px"
	 viewBox="0 0 32 32" style="enable-background:new 0 0 32 32;" xml:space="preserve">
<style type="text/css">
	.st0{fill:#565656;}
</style>
<g>
	<path class="st0" d="M16,1.4c-8.3,0-15,6.7-15,15C1,23,5.3,28.6,11.3,30.6c0.8,0.1,1-0.3,1-0.7c0-0.4,0-1.5,0-2.8
		c-3.8,0.7-4.7-0.9-5-1.8c-0.2-0.4-0.9-1.8-1.5-2.1c-0.5-0.3-1.3-1,0-1c1.2,0,2,1.1,2.3,1.5c1.3,2.3,3.5,1.6,4.4,1.2
		c0.1-1,0.5-1.6,1-2c-3.3-0.4-6.8-1.7-6.8-7.4c0-1.6,0.6-3,1.5-4c-0.2-0.4-0.7-1.9,0.1-4c0,0,1.3-0.4,4.1,1.5
		c1.2-0.3,2.5-0.5,3.7-0.5c1.3,0,2.5,0.2,3.8,0.5c2.9-2,4.1-1.5,4.1-1.5c0.8,2.1,0.3,3.6,0.1,4c1,1.1,1.5,2.4,1.5,4
		c0,5.8-3.5,7-6.8,7.4c0.5,0.5,1,1.4,1,2.8c0,2,0,3.6,0,4.1c0,0.4,0.3,0.9,1,0.7C26.9,28.5,31,22.8,31,16.4C31,8.1,24.3,1.4,16,1.4z
		"/>
</g>
</svg>
