<?xml version="1.0" encoding="utf-8"?>
<!-- Generator: Adobe Illustrator 21.1.0, SVG Export Plug-In . SVG Version: 6.00 Build 0)  -->
<svg version="1.1" id="图层_1" xmlns="http://www.w3.org/2000/svg" xmlns:xlink="http://www.w3.org/1999/xlink" x="0px" y="0px"
	 viewBox="0 0 32 32" style="enable-background:new 0 0 32 32;" xml:space="preserve">
<style type="text/css">
	.st0{fill:#C71D23;}
</style>
<title>logo</title>
<desc>Created with Sketch.</desc>
<g id="Page-1">
	<g id="logo-copy-2" transform="translate(-163.000000, -92.000000)">
		<g id="logo" transform="translate(163.000000, 91.000000)">
			<path id="G" class="st0" d="M29.7,14H14.3v0c-0.7,0-1.3,0.6-1.3,1.3l0,3.3h0c0,0.7,0.6,1.3,1.3,1.3c0,0,0,0,0,0l9.3,0v0
				c0.7,0,1.3,0.6,1.3,1.3c0,0,0,0,0,0l0,0.3V22l0,0c0,2.2-1.8,4-4,4H8.3v0C7.6,26,7,25.4,7,24.7L7,12h0c0-2.2,1.8-4,4-4
				c0,0,0,0,0,0l18.7,0v0C30.4,8,31,7.4,31,6.7l0-3.3l0,0C31,2.6,30.4,2,29.7,2c0,0,0,0,0,0L11,2v0C5.5,2,1,6.5,1,12l0,18.7h0
				C1,31.4,1.6,32,2.3,32c0,0,0,0,0,0L22,32l0,0c5,0,9-4,9-9v-7.7l0,0C31,14.6,30.4,14,29.7,14z"/>
		</g>
	</g>
</g>
</svg>
