<svg id="Layer_2" data-name="Layer 2" xmlns="http://www.w3.org/2000/svg" xmlns:xlink="http://www.w3.org/1999/xlink" viewBox="0 0 2000 700"><defs><linearGradient id="linear-gradient" x1="1369.00067" y1="181.94973" x2="1532.25454" y2="-100.81428" gradientUnits="userSpaceOnUse"><stop offset="0" stop-color="#fff"/><stop offset="1" stop-color="#fff" stop-opacity="0"/></linearGradient><linearGradient id="linear-gradient-2" x1="1669.78599" y1="800.43927" x2="1840.1123" y2="505.42544" xlink:href="#linear-gradient"/><linearGradient id="linear-gradient-3" x1="1039.58545" y1="799.95979" x2="1189.99903" y2="539.43582" xlink:href="#linear-gradient"/><linearGradient id="linear-gradient-4" x1="424.81802" y1="780.89717" x2="638.13987" y2="411.41289" xlink:href="#linear-gradient"/><linearGradient id="linear-gradient-5" x1="0.02754" y1="284.04587" x2="188.95362" y2="-43.18371" xlink:href="#linear-gradient"/><linearGradient id="linear-gradient-6" x1="1055.68017" y1="141.95975" x2="1170.098" y2="-56.21773" xlink:href="#linear-gradient"/><linearGradient id="linear-gradient-7" x1="386.68397" y1="141.95642" x2="501.09941" y2="-56.21692" xlink:href="#linear-gradient"/><linearGradient id="linear-gradient-8" x1="215.73785" y1="548.52774" x2="361.26215" y2="296.47226" xlink:href="#linear-gradient"/><linearGradient id="linear-gradient-9" x1="1867.79802" y1="216.7474" x2="1994.70289" y2="-3.05829" xlink:href="#linear-gradient"/><linearGradient id="linear-gradient-10" x1="745.63892" y1="758.64084" x2="852.81023" y2="573.01469" xlink:href="#linear-gradient"/><linearGradient id="linear-gradient-11" x1="1228.24512" y1="162.17095" x2="1286.75488" y2="60.82905" xlink:href="#linear-gradient"/><linearGradient id="linear-gradient-12" x1="1805.24512" y1="257.17095" x2="1863.75488" y2="155.82905" xlink:href="#linear-gradient"/><linearGradient id="linear-gradient-13" x1="665.99758" y1="212.11893" x2="695.00242" y2="161.88107" xlink:href="#linear-gradient"/><linearGradient id="linear-gradient-14" x1="32.49758" y1="522.11893" x2="61.50242" y2="471.88107" xlink:href="#linear-gradient"/><linearGradient id="linear-gradient-15" x1="1302.49758" y1="302.11893" x2="1331.50242" y2="251.88107" xlink:href="#linear-gradient"/><linearGradient id="linear-gradient-16" x1="1724.49758" y1="125.11893" x2="1753.50242" y2="74.88107" xlink:href="#linear-gradient"/><linearGradient id="linear-gradient-17" x1="636.24512" y1="438.17095" x2="694.75488" y2="336.82905" xlink:href="#linear-gradient"/><linearGradient id="linear-gradient-18" x1="1534.24512" y1="489.17095" x2="1592.75488" y2="387.82905" xlink:href="#linear-gradient"/><linearGradient id="linear-gradient-19" x1="337.24512" y1="198.17095" x2="395.75488" y2="96.82905" xlink:href="#linear-gradient"/><linearGradient id="linear-gradient-20" x1="139.24512" y1="394.17095" x2="197.75488" y2="292.82905" xlink:href="#linear-gradient"/><linearGradient id="linear-gradient-21" x1="-12.84363" y1="497.57472" x2="41.61225" y2="403.25436" xlink:href="#linear-gradient"/><linearGradient id="linear-gradient-22" x1="1492.74219" y1="310.4869" x2="1586.25781" y2="148.5131" xlink:href="#linear-gradient"/><linearGradient id="linear-gradient-23" x1="1930.9838" y1="710.7063" x2="2006.99607" y2="579.04919" xlink:href="#linear-gradient"/><linearGradient id="linear-gradient-24" x1="1706.74219" y1="497.4869" x2="1800.25781" y2="335.5131" xlink:href="#linear-gradient"/><linearGradient id="linear-gradient-25" x1="406.74219" y1="409.4869" x2="500.25781" y2="247.5131" xlink:href="#linear-gradient"/><linearGradient id="linear-gradient-26" x1="1097.74219" y1="562.4869" x2="1191.25781" y2="400.5131" xlink:href="#linear-gradient"/></defs><title>community-header-bg</title><path d="M1706.87,0a245.07663,245.07663,0,0,1-105.6,159.3A243.80865,243.80865,0,0,1,1466,200q-7.6051,0-15.1-.46a243.88639,243.88639,0,0,1-143.38-57.69A246.10428,246.10428,0,0,1,1253.2,76.5Q1247.23,66.06,1242.27,55a242.76712,242.76712,0,0,1-17.14-55Z" opacity="0.3" fill="url(#linear-gradient)"/><path d="M1982.17993,700H1495.82007c12.99-106.45,94.26-191.81,198.67993-210.96A245.0233,245.0233,0,0,1,1982.17993,700Z" opacity="0.3" fill="url(#linear-gradient-2)"/><path d="M1335.55,700H866.45a245.3384,245.3384,0,0,1,197.38007-171.2A247.49405,247.49405,0,0,1,1101,526a244.88256,244.88256,0,0,1,234.55,174Z" opacity="0.3" fill="url(#linear-gradient-3)"/><path d="M763,625a244.63074,244.63074,0,0,1-11.7,75H284.7A244.88976,244.88976,0,0,1,518,380q6.705,0,13.31.36A244.71665,244.71665,0,0,1,763,625Z" opacity="0.3" fill="url(#linear-gradient-4)"/><path d="M267,40c0,135.31-109.69,245-245,245q-11.115,0-22-.97V0H263.75A246.47878,246.47878,0,0,1,267,40Z" opacity="0.3" fill="url(#linear-gradient-5)"/><path d="M1268,12.5a145.33758,145.33758,0,0,1-5.77,40.69,143.2954,143.2954,0,0,1-9.03,23.31A145.98121,145.98121,0,0,1,1203.29,133.52,144.73793,144.73793,0,0,1,1122.5,158,145.49673,145.49673,0,0,1,977,12.5q0-6.315.53-12.5H1267.47Q1267.99512,6.18,1268,12.5Z" opacity="0.3" fill="url(#linear-gradient-6)"/><path d="M599,12.5A145.49673,145.49673,0,0,1,453.5,158a145.72407,145.72407,0,0,1-28.99-2.89,145.59337,145.59337,0,0,1-88.89-57.3A144.78956,144.78956,0,0,1,308,12.5q0-6.315.53-12.5H598.47Q598.995,6.18,599,12.5Z" opacity="0.3" fill="url(#linear-gradient-7)"/><circle cx="288.5" cy="422.5" r="145.5" opacity="0.3" fill="url(#linear-gradient-8)"/><path d="M2000,0V239.69A145.51178,145.51178,0,0,1,1852.3,0Z" opacity="0.3" fill="url(#linear-gradient-9)"/><path d="M934.93,700H644.07a145.49871,145.49871,0,0,1,290.86,0Z" opacity="0.3" fill="url(#linear-gradient-10)"/><circle cx="1257.5" cy="111.5" r="58.5" opacity="0.3" fill="url(#linear-gradient-11)"/><circle cx="1834.5" cy="206.5" r="58.5" opacity="0.3" fill="url(#linear-gradient-12)"/><circle cx="680.5" cy="187" r="29" opacity="0.3" fill="url(#linear-gradient-13)"/><circle cx="47" cy="497" r="29" opacity="0.3" fill="url(#linear-gradient-14)"/><circle cx="1317" cy="277" r="29" opacity="0.3" fill="url(#linear-gradient-15)"/><circle cx="1739" cy="100" r="29" opacity="0.3" fill="url(#linear-gradient-16)"/><circle cx="665.5" cy="387.5" r="58.5" opacity="0.3" fill="url(#linear-gradient-17)"/><circle cx="1563.5" cy="438.5" r="58.5" opacity="0.3" fill="url(#linear-gradient-18)"/><circle cx="366.5" cy="147.5" r="58.5" opacity="0.3" fill="url(#linear-gradient-19)"/><circle cx="168.5" cy="343.5" r="58.5" opacity="0.3" fill="url(#linear-gradient-20)"/><path d="M58,446.5a58.245,58.245,0,0,1-4.39,22.26,58.65766,58.65766,0,0,1-35.2,33.12A58.37535,58.37535,0,0,1,0,504.99V388.01A58.48782,58.48782,0,0,1,58,446.5Z" opacity="0.3" fill="url(#linear-gradient-21)"/><circle cx="1539.5" cy="229.5" r="93.5" opacity="0.3" fill="url(#linear-gradient-22)"/><path d="M2000,575.01V700h-87.56006A93.51106,93.51106,0,0,1,2000,575.01Z" opacity="0.3" fill="url(#linear-gradient-23)"/><circle cx="1753.5" cy="416.5" r="93.5" opacity="0.3" fill="url(#linear-gradient-24)"/><circle cx="453.5" cy="328.5" r="93.5" opacity="0.3" fill="url(#linear-gradient-25)"/><circle cx="1144.5" cy="481.5" r="93.5" opacity="0.3" fill="url(#linear-gradient-26)"/></svg>