<?xml version="1.0" standalone="no"?><!DOCTYPE svg PUBLIC "-//W3C//DTD SVG 1.1//EN" "http://www.w3.org/Graphics/SVG/1.1/DTD/svg11.dtd"><svg t="1511453008396" class="icon" style="" viewBox="0 0 1024 1024" version="1.1" xmlns="http://www.w3.org/2000/svg" p-id="4513" xmlns:xlink="http://www.w3.org/1999/xlink" width="36" height="36"><defs><style type="text/css"></style></defs><path d="M977.454545 426.560399l-31.880448-11.476962a106.480697 106.480697 0 0 1-63.760897-59.297634 106.480697 106.480697 0 0 1 0-86.714819l14.665007-30.605231a63.760897 63.760897 0 0 0-12.75218-72.687422l-33.793275-33.793275a63.760897 63.760897 0 0 0-72.687422-12.752179l-30.60523 14.665006a106.480697 106.480697 0 0 1-86.71482 0 106.480697 106.480697 0 0 1-59.297634-63.760897L593.613948 42.082192A63.760897 63.760897 0 0 0 533.678705 0h-47.183064a63.760897 63.760897 0 0 0-59.935242 42.082192l-11.476962 31.880448a106.480697 106.480697 0 0 1-59.297634 63.760897 106.480697 106.480697 0 0 1-86.714819 0l-30.605231-14.665006a63.760897 63.760897 0 0 0-72.687422 12.752179l-33.793275 33.793275a63.760897 63.760897 0 0 0-12.752179 72.687422l14.665006 30.605231a106.480697 106.480697 0 0 1 0 86.714819 106.480697 106.480697 0 0 1-63.760897 59.297634l-31.880448 11.476961a63.760897 63.760897 0 0 0-38.256538 56.109589v47.183064a63.760897 63.760897 0 0 0 42.719801 59.935243l31.880448 11.476961a106.480697 106.480697 0 0 1 63.760897 59.297634 106.480697 106.480697 0 0 1 0 86.714819l-14.665007 30.605231a63.760897 63.760897 0 0 0 12.75218 72.687422l33.793275 33.793275a63.760897 63.760897 0 0 0 72.687422 12.752179l30.605231-14.665006a106.480697 106.480697 0 0 1 86.714819 0 106.480697 106.480697 0 0 1 59.297634 63.760897l11.476961 31.880448a63.760897 63.760897 0 0 0 59.935243 42.082192h47.183064a63.760897 63.760897 0 0 0 59.935242-42.082192l11.476962-31.242839a107.118306 107.118306 0 0 1 59.935243-63.760897 105.205479 105.205479 0 0 1 85.439601 0l31.24284 14.665006a63.760897 63.760897 0 0 0 72.687422-12.752179l33.793275-33.793275a63.760897 63.760897 0 0 0 12.752179-72.687422l-14.665006-30.605231a106.480697 106.480697 0 0 1 0-86.07721 106.480697 106.480697 0 0 1 63.760897-59.297634l31.880448-11.476961a63.760897 63.760897 0 0 0 33.793275-61.210461v-47.183064a63.760897 63.760897 0 0 0-42.719801-59.935242z m-279.910336 121.145703a191.28269 191.28269 0 1 1-225.075965-225.075965 191.28269 191.28269 0 0 1 225.075965 225.075965z" p-id="4514" fill="#888888"></path></svg>