<?xml version="1.0" encoding="utf-8"?>
<!-- Generator: Adobe Illustrator 21.1.0, SVG Export Plug-In . SVG Version: 6.00 Build 0)  -->
<svg version="1.1" id="图层_1" xmlns="http://www.w3.org/2000/svg" xmlns:xlink="http://www.w3.org/1999/xlink" x="0px" y="0px"
	 viewBox="0 0 700 480" style="enable-background:new 0 0 700 480;" xml:space="preserve">
<style type="text/css">
	.st0{opacity:0.1;}
	.st1{fill:url(#SVGID_1_);}
	.st2{fill:url(#SVGID_2_);}
	.st3{opacity:0.4;}
	.st4{fill:#F6F6F6;}
	.st5{fill:#D9D9D9;}
	.st6{fill:url(#SVGID_3_);}
	.st7{fill:url(#SVGID_4_);}
	.st8{fill:url(#SVGID_5_);}
	.st9{opacity:0.2;}
	.st10{fill:#E4E4E4;}
	.st11{fill:#DADADA;}
	.st12{fill:#EDEDED;}
	.st13{fill:#CCCCCC;}
	.st14{fill:#D7D7D7;}
	.st15{fill:#F2F2F2;}
	.st16{fill:#E62F17;}
	.st17{fill:#F28830;}
	.st18{fill:#30EF58;}
	.st19{fill:url(#SVGID_6_);}
	.st20{fill:url(#SVGID_7_);}
	.st21{display:none;fill:#F6F6F6;}
	.st22{fill:url(#SVGID_8_);}
	.st23{fill:url(#SVGID_9_);}
	.st24{fill:url(#SVGID_10_);}
	.st25{fill:#FFFFFF;}
	.st26{opacity:0.64;fill:#C6C6C5;enable-background:new    ;}
	.st27{opacity:0.1;fill:#00111A;enable-background:new    ;}
</style>
<g class="st0">
	
		<image style="overflow:visible;enable-background:new    ;" width="511" height="326" xlink:href="39B893C839199F6B.png"  transform="matrix(1 0 0 1 91.4156 160.9304)">
	</image>
</g>
<linearGradient id="SVGID_1_" gradientUnits="userSpaceOnUse" x1="120.03" y1="415.0024" x2="337.8434" y2="289.9869" gradientTransform="matrix(1 0 0 -1 0 480)">
	<stop  offset="0" style="stop-color:#178CE6"/>
	<stop  offset="1" style="stop-color:#17B9E6"/>
</linearGradient>
<polygon class="st1" points="389.1,172.5 304.6,221 112.1,107.4 196.4,58.8 "/>
<linearGradient id="SVGID_2_" gradientUnits="userSpaceOnUse" x1="93.0682" y1="390.8118" x2="281.0831" y2="282.8993" gradientTransform="matrix(1 0 0 -1 0 480)">
	<stop  offset="0" style="stop-color:#178CE6"/>
	<stop  offset="1" style="stop-color:#17B9E6"/>
</linearGradient>
<polygon class="st2" points="110.6,88 122.1,93.6 302.3,197.5 305.6,204.9 305.6,216.3 297.2,218.6 112.1,111.9 104.7,97.7 
	107.4,88.9 "/>
<g class="st3">
	<polygon points="110.6,88 122.1,93.6 302.3,197.5 305.6,204.9 305.6,216.3 297.2,218.6 112.1,111.9 104.7,97.7 107.4,88.9 	"/>
</g>
<polygon class="st4" points="208.7,59 120.2,110.1 110.6,94.2 199.2,43 "/>
<path class="st5" d="M122.1,105.9c0,4.2-2.9,5.9-6.6,3.8c-3.9-2.5-6.3-6.7-6.6-11.4c0-4.2,2.9-5.9,6.6-3.8
	C119.4,97,121.8,101.2,122.1,105.9z"/>
<polygon class="st4" points="228.6,70.4 140.1,121.6 130.5,105.6 219.1,54.5 "/>
<path class="st5" d="M142,117.3c0,4.2-2.9,5.9-6.6,3.8c-3.9-2.5-6.3-6.7-6.6-11.4c0-4.2,2.9-5.9,6.6-3.8
	C139.3,108.5,141.7,112.7,142,117.3z"/>
<polygon class="st4" points="248.5,81.9 160,133 150.4,117.1 239,66 "/>
<path class="st5" d="M161.9,128.8c0,4.2-2.9,5.9-6.6,3.8c-3.9-2.5-6.3-6.7-6.6-11.4c0-4.2,2.9-5.9,6.6-3.8
	C159.2,120,161.6,124.2,161.9,128.8z"/>
<polygon class="st4" points="268.4,93.4 179.9,144.5 170.3,128.6 258.9,77.5 "/>
<path class="st5" d="M181.8,140.3c0,4.2-2.9,5.9-6.6,3.8c-3.9-2.5-6.3-6.7-6.6-11.4c0-4.2,2.9-5.9,6.6-3.8
	C179.1,131.4,181.5,135.7,181.8,140.3z"/>
<polygon class="st4" points="288.3,104.9 199.8,156 190.2,140 278.8,88.9 "/>
<path class="st5" d="M201.7,151.7c0,4.2-2.9,5.9-6.6,3.8c-3.9-2.5-6.3-6.7-6.6-11.4c0-4.2,2.9-5.9,6.6-3.8
	C199,142.9,201.4,147.1,201.7,151.7z"/>
<polygon class="st4" points="308.2,116.3 219.6,167.4 210.1,151.5 298.7,100.4 "/>
<path class="st5" d="M221.6,163.2c0,4.2-2.9,5.9-6.6,3.8c-3.9-2.5-6.3-6.7-6.6-11.4c0-4.2,2.9-5.9,6.6-3.8
	C218.9,154.4,221.3,158.6,221.6,163.2z"/>
<polygon class="st4" points="328.1,127.8 239.5,178.9 230,163 318.6,111.9 "/>
<path class="st5" d="M241.5,174.7c0,4.2-2.9,5.9-6.6,3.8c-3.9-2.5-6.3-6.7-6.6-11.4c0-4.2,2.9-5.9,6.6-3.8
	C238.8,165.9,241.2,170.1,241.5,174.7z"/>
<polygon class="st4" points="348,139.3 259.4,190.4 249.9,174.5 338.4,123.3 "/>
<path class="st5" d="M261.4,186.2c0,4.2-2.9,5.9-6.6,3.8c-3.9-2.5-6.3-6.7-6.6-11.4c0-4.2,2.9-5.9,6.6-3.8
	C258.7,177.3,261.1,181.5,261.4,186.2z"/>
<polygon class="st4" points="367.9,150.7 279.3,201.9 269.8,185.9 358.3,134.8 "/>
<path class="st5" d="M281.3,197.6c0,4.2-2.9,5.9-6.6,3.8c-3.9-2.5-6.3-6.7-6.6-11.4c0-4.2,2.9-5.9,6.6-3.8
	C278.6,188.8,281,193,281.3,197.6z"/>
<polygon class="st4" points="305.6,209.6 299.2,213.3 289.7,197.4 297,193.2 "/>
<path class="st5" d="M301.2,209.1c0,4.2-2.9,5.9-6.6,3.8c-3.9-2.5-6.3-6.7-6.6-11.4c0-4.2,2.9-5.9,6.6-3.8
	C298.5,200.3,300.9,204.5,301.2,209.1z"/>
<linearGradient id="SVGID_3_" gradientUnits="userSpaceOnUse" x1="146.9116" y1="456.7463" x2="362.8425" y2="332.8112" gradientTransform="matrix(1 0 0 -1 0 480)">
	<stop  offset="0" style="stop-color:#178CE6"/>
	<stop  offset="1" style="stop-color:#17B9E6"/>
</linearGradient>
<path class="st6" d="M380,142.8L199.6,38.7c-7-4-12.6-0.8-12.6,7.2c0,8,5.7,17.7,12.6,21.7L380,171.8c7,4,12.6,0.8,12.6-7.2
	C392.6,156.6,386.9,146.8,380,142.8L380,142.8z"/>
<linearGradient id="SVGID_4_" gradientUnits="userSpaceOnUse" x1="127.1773" y1="429.5415" x2="344.9451" y2="304.5521" gradientTransform="matrix(1 0 0 -1 0 480)">
	<stop  offset="0" style="stop-color:#178CE6"/>
	<stop  offset="1" style="stop-color:#17B9E6"/>
</linearGradient>
<polygon class="st7" points="383.5,148.8 298.2,197.3 308.2,200.8 118.4,90.5 105.9,86.4 190.2,38.1 "/>
<linearGradient id="SVGID_5_" gradientUnits="userSpaceOnUse" x1="102.2921" y1="385.7548" x2="308.124" y2="267.0056" gradientTransform="matrix(1 0 0 -1 0 480)">
	<stop  offset="0" style="stop-color:#178CE6"/>
	<stop  offset="1" style="stop-color:#17B9E6"/>
</linearGradient>
<path class="st8" d="M295.5,195.6c4.8,2.8,8.8,9.6,8.8,15.1v0c0,5.6-3.9,7.8-8.8,5L115.1,111.7c-4.8-2.8-8.8-9.6-8.8-15.1v0
	c0-5.6,3.9-7.8,8.8-5L295.5,195.6 M295.5,191.3L115.1,87.2c-7-4-12.6-0.8-12.6,7.2c0,8,5.7,17.7,12.6,21.7l180.4,104.1
	c7,4,12.6,0.8,12.6-7.2C308.1,205,302.5,195.3,295.5,191.3L295.5,191.3z"/>
<g class="st9">
	<path d="M295.5,195.6c4.8,2.8,8.8,9.6,8.8,15.1v0c0,5.6-3.9,7.8-8.8,5L115.1,111.7c-4.8-2.8-8.8-9.6-8.8-15.1v0
		c0-5.6,3.9-7.8,8.8-5L295.5,195.6 M295.5,191.3L115.1,87.2c-7-4-12.6-0.8-12.6,7.2c0,8,5.7,17.7,12.6,21.7l180.4,104.1
		c7,4,12.6,0.8,12.6-7.2C308.1,205,302.5,195.3,295.5,191.3L295.5,191.3z"/>
</g>
<polygon class="st4" points="452.6,89.2 350,148.4 247.5,89.2 350.1,30 "/>
<polygon class="st10" points="350,323.6 445.3,268.6 445.3,231.5 350,286.5 "/>
<polygon class="st11" points="238.8,94.7 247.5,99.8 247.5,215.3 238.8,210.2 "/>
<polygon class="st4" points="247.5,99.8 238.8,94.8 341.3,35.6 350,40.6 "/>
<polygon class="st12" points="350,304.7 452.5,245.5 452.5,89.2 350,148.4 "/>
<polygon class="st13" points="358.7,279.5 461.2,220.3 461.2,104.8 358.7,163.9 "/>
<path class="st14" d="M379.3,92.2h-19.5v7.6h0c0,1.4,0.9,2.9,2.8,4c4.3,2.2,9.5,2.2,13.8,0c1.9-1.1,2.9-2.5,2.9-4h0L379.3,92.2z"/>
<path class="st15" d="M376.5,88.2c3.8,2.2,3.8,5.8,0,8c-4.3,2.2-9.5,2.2-13.8,0c-3.8-2.2-3.8-5.8,0-8C367,86,372.2,86,376.5,88.2z"
	/>
<path class="st16" d="M377.8,92.1L377.8,92.1c0,1-0.8,2-2.1,2.7c-1.9,1-4,1.5-6.2,1.5c-2.1,0-4.2-0.4-6.1-1.4
	c-1.3-0.8-2.1-1.7-2.1-2.6v-0.1c0-4.6,3.7-8.3,8.3-8.3C374.1,83.9,377.8,87.6,377.8,92.1L377.8,92.1z"/>
<path class="st15" d="M369.5,96.3c-2.1,0-4.2-0.5-6.1-1.4c-1.3-0.8-2.1-1.7-2.1-2.7c0-0.9,0.8-1.9,2.1-2.7c1.9-1,4-1.5,6.2-1.5
	c2.1,0,4.2,0.5,6.1,1.4c1.3,0.8,2.1,1.7,2.1,2.7c0,0.9-0.8,1.9-2.1,2.7C373.8,95.8,371.7,96.3,369.5,96.3z"/>
<path class="st14" d="M360.3,81.4h-19.5V89h0c0,1.4,0.9,2.9,2.8,4c4.3,2.2,9.5,2.2,13.8,0c1.9-1.1,2.9-2.5,2.9-4h0L360.3,81.4z"/>
<path class="st15" d="M357.4,77.4c3.8,2.2,3.8,5.8,0,8c-4.3,2.2-9.5,2.2-13.8,0c-3.8-2.2-3.8-5.8,0-8
	C348,75.2,353.1,75.2,357.4,77.4z"/>
<path class="st17" d="M358.8,81.3L358.8,81.3c0,1-0.8,2-2.1,2.7c-1.9,1-4,1.5-6.2,1.5c-2.1,0-4.2-0.4-6.1-1.4
	c-1.3-0.8-2.1-1.7-2.1-2.6v-0.1c0-4.6,3.7-8.3,8.3-8.3C355,73.1,358.7,76.8,358.8,81.3L358.8,81.3z"/>
<path class="st15" d="M350.4,85.5c-2.1,0-4.2-0.5-6.1-1.4c-1.3-0.8-2.1-1.7-2.1-2.7c0-0.9,0.8-1.9,2.1-2.7c1.9-1,4-1.5,6.2-1.5
	c2.1,0,4.2,0.5,6.1,1.4c1.3,0.8,2.1,1.7,2.1,2.7c0,0.9-0.8,1.9-2.1,2.7C354.7,85.1,352.6,85.6,350.4,85.5z"/>
<path class="st14" d="M341.2,70.6h-19.5v7.6h0c0,1.4,0.9,2.9,2.8,4c4.3,2.2,9.5,2.2,13.8,0c1.9-1.1,2.9-2.5,2.9-4h0L341.2,70.6z"/>
<path class="st15" d="M338.4,66.6c3.8,2.2,3.8,5.8,0,8c-4.3,2.2-9.5,2.2-13.8,0c-3.8-2.2-3.8-5.8,0-8
	C328.9,64.4,334,64.4,338.4,66.6z"/>
<path class="st18" d="M339.7,70.5L339.7,70.5c0,1-0.8,2-2.1,2.7c-1.9,1-4,1.5-6.2,1.5c-2.1,0-4.2-0.4-6.1-1.4
	c-1.3-0.8-2.1-1.7-2.1-2.6v-0.1c0-4.6,3.7-8.3,8.3-8.3C336,62.3,339.7,66,339.7,70.5L339.7,70.5z"/>
<path class="st15" d="M331.4,74.7c-2.1,0-4.2-0.5-6.1-1.4c-1.3-0.8-2.1-1.7-2.1-2.7c0-0.9,0.8-1.9,2.1-2.7c1.9-1,4-1.5,6.2-1.5
	c2.1,0,4.2,0.5,6.1,1.4c1.3,0.8,2.1,1.7,2.1,2.7c0,0.9-0.8,1.9-2.1,2.7C335.7,74.3,333.5,74.8,331.4,74.7z"/>
<linearGradient id="SVGID_6_" gradientUnits="userSpaceOnUse" x1="324.9549" y1="294.9995" x2="542.7682" y2="169.984" gradientTransform="matrix(1 0 0 -1 0 480)">
	<stop  offset="0" style="stop-color:#178CE6"/>
	<stop  offset="1" style="stop-color:#17B9E6"/>
</linearGradient>
<polygon class="st19" points="594,292.5 509.5,341 317,227.4 401.3,178.8 "/>
<linearGradient id="SVGID_7_" gradientUnits="userSpaceOnUse" x1="297.9933" y1="270.8092" x2="486.0082" y2="162.8967" gradientTransform="matrix(1 0 0 -1 0 480)">
	<stop  offset="0" style="stop-color:#178CE6"/>
	<stop  offset="1" style="stop-color:#17B9E6"/>
</linearGradient>
<polygon class="st20" points="315.6,208 327,213.6 507.2,317.5 510.6,324.9 510.6,336.3 502.2,338.6 317,231.9 309.6,217.7 
	312.3,208.9 "/>
<g class="st3">
	<polygon points="315.6,208 327,213.6 507.2,317.5 510.6,324.9 510.6,336.3 502.2,338.6 317,231.9 309.6,217.7 312.3,208.9 	"/>
</g>
<polygon class="st21" points="413.6,179 325.1,230.1 315.6,214.2 404.1,163 "/>
<path class="st5" d="M327,225.9c0,4.2-2.9,5.9-6.6,3.8c-3.9-2.5-6.3-6.7-6.6-11.4c0-4.2,2.9-5.9,6.6-3.8
	C324.3,217,326.8,221.2,327,225.9z"/>
<polygon class="st4" points="433.5,190.4 345,241.6 335.5,225.6 424,174.5 "/>
<path class="st5" d="M346.9,237.3c0,4.2-2.9,5.9-6.6,3.8c-3.9-2.5-6.3-6.7-6.6-11.4c0-4.2,2.9-5.9,6.6-3.8
	C344.2,228.5,346.7,232.7,346.9,237.3z"/>
<polygon class="st4" points="453.4,201.9 364.9,253 355.4,237.1 443.9,186 "/>
<path class="st5" d="M366.8,248.8c0,4.2-2.9,5.9-6.6,3.8c-3.9-2.5-6.3-6.7-6.6-11.4c0-4.2,2.9-5.9,6.6-3.8
	C364.1,240,366.6,244.2,366.8,248.8z"/>
<polygon class="st4" points="473.3,213.4 384.8,264.5 375.2,248.6 463.8,197.5 "/>
<path class="st5" d="M386.7,260.3c0,4.2-2.9,5.9-6.6,3.8c-3.9-2.5-6.3-6.7-6.6-11.4c0-4.2,2.9-5.9,6.6-3.8
	C384,251.4,386.4,255.7,386.7,260.3z"/>
<polygon class="st4" points="493.2,224.9 404.7,276 395.1,260 483.7,208.9 "/>
<path class="st5" d="M406.6,271.7c0,4.2-2.9,5.9-6.6,3.8c-3.9-2.5-6.3-6.7-6.6-11.4c0-4.2,2.9-5.9,6.6-3.8
	C403.9,262.9,406.3,267.1,406.6,271.7z"/>
<polygon class="st4" points="513.1,236.3 424.6,287.4 415,271.5 503.6,220.4 "/>
<path class="st5" d="M426.5,283.2c0,4.2-2.9,5.9-6.6,3.8c-3.9-2.5-6.3-6.7-6.6-11.4c0-4.2,2.9-5.9,6.6-3.8
	C423.8,274.4,426.2,278.6,426.5,283.2z"/>
<polygon class="st4" points="533,247.8 444.5,298.9 434.9,283 523.5,231.9 "/>
<path class="st5" d="M446.4,294.7c0,4.2-2.9,5.9-6.6,3.8c-3.9-2.5-6.3-6.7-6.6-11.4c0-4.2,2.9-5.9,6.6-3.8
	C443.7,285.9,446.1,290.1,446.4,294.7z"/>
<polygon class="st4" points="552.9,259.3 464.4,310.4 454.8,294.5 543.4,243.3 "/>
<path class="st5" d="M466.3,306.2c0,4.2-2.9,5.9-6.6,3.8c-3.9-2.5-6.3-6.7-6.6-11.4c0-4.2,2.9-5.9,6.6-3.8
	C463.6,297.3,466,301.6,466.3,306.2z"/>
<polygon class="st4" points="572.8,270.7 484.3,321.9 474.7,305.9 563.3,254.8 "/>
<path class="st5" d="M486.2,317.6c0,4.2-2.9,5.9-6.6,3.8c-3.9-2.5-6.3-6.7-6.6-11.4c0-4.2,2.9-5.9,6.6-3.8
	C483.5,308.8,485.9,313,486.2,317.6z"/>
<polygon class="st4" points="510.6,329.6 504.2,333.3 494.6,317.4 501.9,313.2 "/>
<path class="st5" d="M506.1,329.1c0,4.2-2.9,5.9-6.6,3.8c-3.9-2.5-6.3-6.7-6.6-11.4c0-4.2,2.9-5.9,6.6-3.8
	C503.4,320.3,505.8,324.5,506.1,329.1z"/>
<linearGradient id="SVGID_8_" gradientUnits="userSpaceOnUse" x1="351.8368" y1="336.7439" x2="567.7678" y2="212.8088" gradientTransform="matrix(1 0 0 -1 0 480)">
	<stop  offset="0" style="stop-color:#178CE6"/>
	<stop  offset="1" style="stop-color:#17B9E6"/>
</linearGradient>
<path class="st22" d="M584.9,262.8L404.5,158.7c-7-4-12.6-0.8-12.6,7.2c0,8,5.7,17.7,12.6,21.7l180.4,104.1c7,4,12.6,0.8,12.6-7.2
	C597.5,276.6,591.8,266.8,584.9,262.8L584.9,262.8z"/>
<linearGradient id="SVGID_9_" gradientUnits="userSpaceOnUse" x1="332.1028" y1="309.5395" x2="549.8705" y2="184.5501" gradientTransform="matrix(1 0 0 -1 0 480)">
	<stop  offset="0" style="stop-color:#178CE6"/>
	<stop  offset="1" style="stop-color:#17B9E6"/>
</linearGradient>
<polygon class="st23" points="588.4,268.8 503.1,317.3 513.1,320.8 323.3,210.5 310.9,206.4 395.1,158.1 "/>
<linearGradient id="SVGID_10_" gradientUnits="userSpaceOnUse" x1="307.2173" y1="265.7523" x2="513.0491" y2="147.0031" gradientTransform="matrix(1 0 0 -1 0 480)">
	<stop  offset="0" style="stop-color:#178CE6"/>
	<stop  offset="1" style="stop-color:#17B9E6"/>
</linearGradient>
<path class="st24" d="M500.4,315.6c4.8,2.8,8.8,9.6,8.8,15.1v0c0,5.6-3.9,7.8-8.8,5L320,231.7c-4.8-2.8-8.8-9.6-8.8-15.1v0
	c0-5.6,3.9-7.8,8.8-5L500.4,315.6 M500.4,311.3L320,207.2c-7-4-12.6-0.8-12.6,7.2c0,8,5.7,17.7,12.6,21.7l180.4,104.1
	c7,4,12.6,0.8,12.6-7.2C513.1,325,507.4,315.3,500.4,311.3L500.4,311.3z"/>
<g class="st9">
	<path d="M500.4,315.6c4.8,2.8,8.8,9.6,8.8,15.1v0c0,5.6-3.9,7.8-8.8,5L320,231.7c-4.8-2.8-8.8-9.6-8.8-15.1v0c0-5.6,3.9-7.8,8.8-5
		L500.4,315.6 M500.4,311.3L320,207.2c-7-4-12.6-0.8-12.6,7.2c0,8,5.7,17.7,12.6,21.7l180.4,104.1c7,4,12.6,0.8,12.6-7.2
		C513.1,325,507.4,315.3,500.4,311.3L500.4,311.3z"/>
</g>
<polygon class="st12" points="395.1,232.8 446.5,203.1 446.5,175.1 343.7,175.1 "/>
<polygon class="st11" points="343.7,203.1 395.1,232.8 395.1,204.7 343.7,175.1 "/>
<polygon class="st4" points="379.7,169.7 387,173.9 387,157.7 379.7,153.5 "/>
<polygon class="st4" points="343.7,175.1 395.1,204.7 446.5,174.9 395.1,145.2 "/>
<polygon class="st25" points="365.8,187.8 373.1,192 424.5,162.2 417.2,158 "/>
<polygon class="st26" points="395.1,145.2 395.2,190.5 370.4,190.5 343.7,175.1 "/>
<polygon class="st12" points="395.2,190.5 418.9,176.8 418.9,148.8 371.4,148.8 "/>
<polygon class="st11" points="371.4,176.8 395.2,190.5 395.2,162.4 371.4,148.8 "/>
<polygon class="st4" points="379.7,169.7 387,173.9 387,157.7 379.7,153.5 "/>
<polygon class="st4" points="371.4,148.8 395.2,162.4 418.9,148.8 395.2,135.1 "/>
<polygon class="st25" points="379.7,153.5 387,157.7 410.6,144.1 403.3,139.9 "/>
<polygon class="st11" points="358.7,279.5 350,274.4 350,158.9 358.7,163.9 "/>
<polygon class="st4" points="358.7,163.9 350.1,159 452.5,99.8 461.2,104.8 "/>
<path class="st12" d="M358.7,163.9v115.5l18.2-10.5l-5.3-3.1l-7.6,4.4V167l91.9-53v74.4l5.3,3.1v-86.7L358.7,163.9z"/>
<polygon class="st13" points="350,323.6 254.8,268.6 254.8,224.2 350,279.2 "/>
<polygon class="st11" points="350,304.7 247.5,245.5 247.5,89.2 350,148.4 "/>
<polygon class="st26" points="257.1,200.2 340.4,248.3 340.4,233.1 257.1,185.1 "/>
<polygon class="st26" points="258.6,199.4 260.7,200.6 260.7,188.8 258.6,187.5 "/>
<path class="st16" d="M332.6,236.2c0,0.7-0.5,1-1.2,0.7c-0.7-0.4-1.1-1.2-1.2-2c0-0.7,0.5-1,1.2-0.7
	C332.1,234.6,332.6,235.4,332.6,236.2z"/>
<path class="st17" d="M329.1,234.2c0,0.7-0.5,1-1.2,0.7c-0.7-0.4-1.1-1.2-1.2-2c0-0.7,0.5-1,1.2-0.7
	C328.6,232.6,329.1,233.3,329.1,234.2z"/>
<path class="st18" d="M325.6,232.1c0,0.7-0.5,1-1.2,0.7c-0.7-0.4-1.1-1.2-1.2-2c0-0.7,0.5-1,1.2-0.7
	C325.1,230.6,325.5,231.3,325.6,232.1z"/>
<polygon class="st26" points="336.8,244.6 339,245.8 339,234 336.8,232.7 "/>
<polygon class="st26" points="257.1,180.5 340.4,228.6 340.4,213.4 257.1,165.3 "/>
<polygon class="st26" points="258.6,179.7 260.7,180.9 260.7,169.1 258.6,167.8 "/>
<path class="st16" d="M332.6,216.5c0,0.7-0.5,1-1.2,0.7c-0.7-0.4-1.1-1.2-1.2-2c0-0.7,0.5-1,1.2-0.7
	C332.1,214.9,332.6,215.7,332.6,216.5z"/>
<path class="st17" d="M329.1,214.5c0,0.7-0.5,1-1.2,0.7c-0.7-0.4-1.1-1.2-1.2-2c0-0.7,0.5-1,1.2-0.7
	C328.6,212.9,329.1,213.6,329.1,214.5z"/>
<path class="st18" d="M325.6,212.4c0,0.7-0.5,1-1.2,0.7c-0.7-0.4-1.1-1.2-1.2-2c0-0.7,0.5-1,1.2-0.7
	C325.1,210.8,325.5,211.6,325.6,212.4z"/>
<polygon class="st26" points="336.8,224.8 339,226.1 339,214.2 336.8,213 "/>
<polygon class="st26" points="257.1,239.6 340.4,287.7 340.4,272.6 257.1,224.5 "/>
<polygon class="st26" points="258.6,238.8 260.7,240.1 260.7,228.2 258.6,227 "/>
<path class="st16" d="M332.6,275.6c0,0.7-0.5,1-1.2,0.7c-0.7-0.4-1.1-1.2-1.2-2c0-0.7,0.5-1,1.2-0.7
	C332.1,274.1,332.6,274.8,332.6,275.6z"/>
<path class="st17" d="M329.1,273.6c0,0.7-0.5,1-1.2,0.7c-0.7-0.4-1.1-1.2-1.2-2c0-0.7,0.5-1,1.2-0.7
	C328.6,272,329.1,272.8,329.1,273.6z"/>
<path class="st18" d="M325.6,271.6c0,0.7-0.5,1-1.2,0.7c-0.7-0.4-1.1-1.2-1.2-2c0-0.7,0.5-1,1.2-0.7
	C325.1,270,325.5,270.7,325.6,271.6z"/>
<polygon class="st26" points="336.8,284 339,285.2 339,273.4 336.8,272.2 "/>
<polygon class="st26" points="257.1,219.9 340.4,268 340.4,252.9 257.1,204.8 "/>
<polygon class="st26" points="258.6,219.1 260.7,220.3 260.7,208.5 258.6,207.3 "/>
<path class="st16" d="M332.6,255.9c0,0.7-0.5,1-1.2,0.7c-0.7-0.4-1.1-1.2-1.2-2c0-0.7,0.5-1,1.2-0.7
	C332.1,254.3,332.6,255.1,332.6,255.9z"/>
<path class="st17" d="M329.1,253.9c0,0.7-0.5,1-1.2,0.7c-0.7-0.4-1.1-1.2-1.2-2c0-0.7,0.5-1,1.2-0.7
	C328.6,252.3,329.1,253.1,329.1,253.9z"/>
<path class="st18" d="M325.6,251.9c0,0.7-0.5,1-1.2,0.7c-0.7-0.4-1.1-1.2-1.2-2c0-0.7,0.5-1,1.2-0.7
	C325.1,250.3,325.5,251,325.6,251.9z"/>
<polygon class="st26" points="336.8,264.3 339,265.5 339,253.7 336.8,252.4 "/>
<polygon class="st26" points="257.1,160.8 340.4,208.9 340.4,193.7 257.1,145.6 "/>
<polygon class="st26" points="258.6,159.9 260.7,161.2 260.7,149.3 258.6,148.1 "/>
<path class="st16" d="M332.6,196.8c0,0.7-0.5,1-1.2,0.7c-0.7-0.4-1.1-1.2-1.2-2c0-0.7,0.5-1,1.2-0.7
	C332.1,195.2,332.6,195.9,332.6,196.8z"/>
<path class="st17" d="M329.1,194.7c0,0.7-0.5,1-1.2,0.7c-0.7-0.4-1.1-1.2-1.2-2c0-0.7,0.5-1,1.2-0.7
	C328.6,193.2,329.1,193.9,329.1,194.7z"/>
<path class="st18" d="M325.6,192.7c0,0.7-0.5,1-1.2,0.7c-0.7-0.4-1.1-1.2-1.2-2c0-0.7,0.5-1,1.2-0.7
	C325.1,191.1,325.5,191.9,325.6,192.7z"/>
<polygon class="st26" points="336.8,205.1 339,206.4 339,194.5 336.8,193.3 "/>
<polygon class="st26" points="257.1,141.1 340.4,189.1 340.4,174 257.1,125.9 "/>
<polygon class="st26" points="258.6,140.2 260.7,141.5 260.7,129.6 258.6,128.4 "/>
<path class="st16" d="M332.6,177.1c0,0.7-0.5,1-1.2,0.7c-0.7-0.4-1.1-1.2-1.2-2c0-0.7,0.5-1,1.2-0.7
	C332.1,175.5,332.6,176.2,332.6,177.1z"/>
<path class="st17" d="M329.1,175c0,0.7-0.5,1-1.2,0.7c-0.7-0.4-1.1-1.2-1.2-2c0-0.7,0.5-1,1.2-0.7
	C328.6,173.4,329.1,174.2,329.1,175z"/>
<path class="st18" d="M325.6,173c0,0.7-0.5,1-1.2,0.7c-0.7-0.4-1.1-1.2-1.2-2c0-0.7,0.5-1,1.2-0.7
	C325.1,171.4,325.5,172.2,325.6,173z"/>
<polygon class="st26" points="336.8,185.4 339,186.6 339,174.8 336.8,173.6 "/>
<polygon class="st26" points="257.1,121.3 340.4,169.4 340.4,154.3 257.1,106.2 "/>
<polygon class="st26" points="258.6,120.5 260.7,121.7 260.7,109.9 258.6,108.7 "/>
<polygon class="st26" points="336.8,165.7 339,166.9 339,155.1 336.8,153.8 "/>
<path class="st16" d="M332.6,157.3c0,0.7-0.5,1-1.2,0.7c-0.7-0.4-1.1-1.2-1.2-2c0-0.7,0.5-1,1.2-0.7
	C332.1,155.8,332.6,156.5,332.6,157.3z"/>
<path class="st17" d="M329.1,155.3c0,0.7-0.5,1-1.2,0.7c-0.7-0.4-1.1-1.2-1.2-2c0-0.7,0.5-1,1.2-0.7
	C328.6,153.7,329.1,154.5,329.1,155.3z"/>
<path class="st18" d="M325.6,153.3c0,0.7-0.5,1-1.2,0.7c-0.7-0.4-1.1-1.2-1.2-2c0-0.7,0.5-1,1.2-0.7
	C325.1,151.7,325.5,152.4,325.6,153.3z"/>
<polygon class="st27" points="288.9,254.9 263.6,240.2 263.6,231.4 288.9,246 "/>
<polygon class="st27" points="288.9,235.1 263.6,220.5 263.6,211.7 288.9,226.3 "/>
<polygon class="st27" points="288.9,215.4 263.6,200.8 263.6,192 288.9,206.6 "/>
<polygon class="st27" points="288.9,195.7 263.6,181.1 263.6,172.2 288.9,186.9 "/>
<polygon class="st27" points="288.9,176 263.6,161.4 263.6,152.5 288.9,167.1 "/>
<polygon class="st27" points="288.9,136.5 263.6,121.9 263.6,113.1 288.9,127.7 "/>
<polygon class="st27" points="288.9,156.2 263.6,141.6 263.6,132.8 288.9,147.4 "/>
<polygon class="st12" points="471.2,268.6 503.9,249.7 503.9,198.8 438.6,198.8 "/>
<polygon class="st11" points="438.6,249.7 471.2,268.6 471.2,217.7 438.6,198.8 "/>
<polygon class="st4" points="452.6,217.1 457.2,219.8 457.2,209.6 452.6,206.9 "/>
<polygon class="st4" points="438.6,198.8 471.2,217.7 503.9,198.7 471.2,179.9 "/>
<polygon class="st25" points="452.6,206.9 457.2,209.6 489.9,190.6 485.2,187.9 "/>
</svg>
