<?xml version="1.0" encoding="utf-8"?>
<!-- Generator: Adobe Illustrator 21.1.0, SVG Export Plug-In . SVG Version: 6.00 Build 0)  -->
<svg version="1.1" id="图层_1" xmlns="http://www.w3.org/2000/svg" xmlns:xlink="http://www.w3.org/1999/xlink" x="0px" y="0px"
	 viewBox="0 0 749.6 589.5" style="enable-background:new 0 0 749.6 589.5;" xml:space="preserve">
<style type="text/css">
	.st0{opacity:0.2;}
	.st1{fill:#F5F5F5;}
	.st2{opacity:0.4;}
	.st3{opacity:0.6;}
	.st4{fill:url(#SVGID_1_);}
	.st5{fill:#17B9E6;}
	.st6{fill:#FFFFFF;}
	.st7{fill:url(#SVGID_2_);}
	.st8{opacity:0.6;fill:#D9D9D9;enable-background:new    ;}
	.st9{fill:#D9D9D9;}
	.st10{fill:url(#SVGID_3_);}
	.st11{opacity:0.1;enable-background:new    ;}
	.st12{fill:url(#SVGID_4_);}
	.st13{opacity:0.3;fill:#FFFFFF;enable-background:new    ;}
	.st14{fill:url(#SVGID_5_);}
	.st15{fill:url(#SVGID_6_);}
	.st16{fill:url(#SVGID_7_);}
	.st17{fill:url(#SVGID_8_);}
	.st18{fill:url(#SVGID_9_);}
	.st19{opacity:0.1;}
	.st20{fill:url(#SVGID_10_);}
	.st21{fill:url(#SVGID_11_);}
	.st22{fill:#999999;}
	.st23{fill:url(#SVGID_12_);}
	.st24{fill:url(#SVGID_13_);}
	.st25{fill:url(#SVGID_14_);}
	.st26{opacity:0.4;fill:#FFFFFF;enable-background:new    ;}
	.st27{fill:url(#SVGID_15_);}
	.st28{fill:url(#SVGID_16_);}
	.st29{fill:url(#SVGID_17_);}
	.st30{fill:url(#SVGID_18_);}
	.st31{fill:url(#SVGID_19_);}
	.st32{fill:url(#SVGID_20_);}
	.st33{fill:url(#SVGID_21_);}
	.st34{fill:url(#SVGID_22_);}
	.st35{fill:url(#SVGID_23_);}
	.st36{fill:url(#SVGID_24_);}
	.st37{fill:url(#SVGID_25_);}
	.st38{fill:url(#SVGID_26_);}
	.st39{fill:url(#SVGID_27_);}
	.st40{fill:url(#SVGID_28_);}
	.st41{fill:url(#SVGID_29_);}
	.st42{opacity:0.3;enable-background:new    ;}
	.st43{fill:url(#SVGID_30_);}
	.st44{fill:url(#SVGID_31_);}
	.st45{fill:url(#SVGID_32_);}
	.st46{fill:url(#SVGID_33_);}
	.st47{fill:url(#SVGID_34_);}
	.st48{fill:url(#SVGID_35_);}
	.st49{fill:url(#SVGID_36_);}
	.st50{fill:url(#SVGID_37_);}
	.st51{fill:url(#SVGID_38_);}
	.st52{fill:url(#SVGID_39_);}
	.st53{fill:url(#SVGID_40_);}
	.st54{fill:url(#SVGID_41_);}
	.st55{fill:url(#SVGID_42_);}
	.st56{fill:url(#SVGID_43_);}
	.st57{fill:url(#SVGID_44_);}
</style>
<title>community-share-illo-01</title>
<g>
	<g id="Layer_1">
		<g class="st0">
			<path class="st1" d="M733.9,77L623.5,13.3c-2.4-1.4-4.4,0.1-4.4,3.3v170.6c0,3.3,2,7,4.4,8.4l102.3,59.1l-3.8,2.2
				c2.4,1.4,4.4,5.2,4.4,8.4v0.2l10.3-6v0c1-0.5,1.6-1.8,1.6-3.6V85.4C738.3,82.2,736.3,78.4,733.9,77z"/>
			<path class="st1" d="M733.9,77L623.5,13.3c-2.4-1.4-4.4,0.1-4.4,3.3v10.5C648,42.1,728,88.7,728,91.4V262c0,1.8-0.6,3.1-1.6,3.6
				v0l10.3-6v0c1-0.5,1.6-1.8,1.6-3.6V85.4C738.3,82.2,736.3,78.4,733.9,77z"/>
			<path class="st1" d="M733.9,77L623.5,13.3c-0.9-0.7-2.1-0.7-3.1-0.1l-10.2,5.9l2.3,1.3l-3.7,2.2l119.2,69l10.3-6v-0.2
				C738.3,82.2,736.3,78.4,733.9,77z"/>
			<path class="st1" d="M723.5,265.3l-110.4-63.7c-2.4-1.4-4.4-5.2-4.4-8.4V22.6c0-3.3,119.2,65.6,119.2,68.8V262
				C728,265.2,726,266.7,723.5,265.3z"/>
			<path class="st1" d="M728,91.6L608.8,22.8v-0.2c0-3.3,2-4.7,4.4-3.3L723.5,83c2.4,1.4,4.4,5.2,4.4,8.4V91.6z"/>
			<path class="st1" d="M733.9,77L623.5,13.3c-0.9-0.7-2.1-0.7-3.1-0.1l-9.9,5.7c0.9-0.4,1.9-0.2,2.7,0.3L723.5,83
				c2.4,1.4,4.4,5.2,4.4,8.4v0.2l10.3-6v-0.2C738.3,82.2,736.3,78.4,733.9,77z"/>
		</g>
		<g class="st0">
			<path class="st1" d="M713.1,88.9L602.8,25.2c-2.4-1.4-4.4,0.1-4.4,3.3v170.6c0,3.3,2,7,4.4,8.4l102.3,59.1l-3.8,2.2
				c2.4,1.4,4.4,5.2,4.4,8.4v0.2l10.3-6v0c1-0.5,1.6-1.8,1.6-3.6V97.4C717.5,94.1,715.6,90.3,713.1,88.9z"/>
			<path class="st1" d="M713.1,88.9L602.8,25.2c-2.4-1.4-4.4,0.1-4.4,3.3V39c28.9,15,108.9,61.6,108.9,64.3v170.6
				c0,1.8-0.6,3.1-1.6,3.6v0l10.3-6v0c1-0.5,1.6-1.8,1.6-3.6V97.4C717.5,94.1,715.6,90.3,713.1,88.9z"/>
			<path class="st1" d="M713.1,88.9L602.8,25.2c-0.9-0.7-2.1-0.7-3.1-0.1L589.5,31l2.3,1.3l-3.7,2.2l119.2,69l10.3-6v-0.2
				C717.5,94.1,715.6,90.3,713.1,88.9z"/>
			<path class="st1" d="M702.8,277.2l-110.4-63.7c-2.4-1.4-4.4-5.2-4.4-8.4V34.5c0-3.3,119.2,65.6,119.2,68.8v170.6
				C707.2,277.2,705.2,278.6,702.8,277.2z"/>
			<path class="st1" d="M707.2,103.5L588,34.7v-0.2c0-3.3,2-4.7,4.4-3.3l110.4,63.7c2.4,1.4,4.4,5.2,4.4,8.4V103.5z"/>
			<path class="st1" d="M713.1,88.9L602.8,25.2c-0.9-0.7-2.1-0.7-3.1-0.1l-9.9,5.7c0.9-0.4,1.9-0.2,2.7,0.3l110.4,63.7
				c2.4,1.4,4.4,5.2,4.4,8.4v0.2l10.3-6v-0.2C717.5,94.1,715.6,90.3,713.1,88.9z"/>
		</g>
		<g class="st2">
			<path class="st1" d="M692.5,100.8L582.1,37.1c-2.4-1.4-4.4,0.1-4.4,3.3V211c0,3.3,2,7,4.4,8.4l102.3,59.1l-3.8,2.2
				c2.4,1.4,4.4,5.2,4.4,8.4v0.2l10.3-6v0c1-0.5,1.6-1.8,1.6-3.6V109.3C696.9,106,694.9,102.2,692.5,100.8z"/>
			<path class="st1" d="M692.5,100.8L582.1,37.1c-2.4-1.4-4.4,0.1-4.4,3.3v10.5c28.9,15,108.9,61.6,108.9,64.3v170.6
				c0,1.8-0.6,3.1-1.6,3.6v0l10.3-6v0c1-0.5,1.6-1.8,1.6-3.6V109.3C696.9,106,694.9,102.2,692.5,100.8z"/>
			<path class="st1" d="M692.5,100.8L582.1,37.1c-0.9-0.7-2.1-0.7-3.1-0.1l-10.2,5.9l2.3,1.3l-3.7,2.2l119.2,69l10.3-6v-0.2
				C696.9,106,694.9,102.2,692.5,100.8z"/>
			<path class="st1" d="M682.1,289.1l-110.4-63.7c-2.4-1.4-4.4-5.2-4.4-8.4V46.4c0-3.3,119.2,65.6,119.2,68.8v170.6
				C686.6,289,684.6,290.5,682.1,289.1z"/>
			<path class="st1" d="M686.6,115.4L567.4,46.6v-0.2c0-3.3,2-4.7,4.4-3.3l110.4,63.7c2.4,1.4,4.4,5.2,4.4,8.4V115.4z"/>
			<path class="st1" d="M692.5,100.8L582.1,37.1c-0.9-0.7-2.1-0.7-3.1-0.1l-9.9,5.7c0.9-0.4,1.9-0.2,2.7,0.3l110.4,63.7
				c2.4,1.4,4.4,5.2,4.4,8.4v0.2l10.3-6v-0.2C696.9,106,694.9,102.2,692.5,100.8z"/>
		</g>
		<g class="st3">
			<path class="st1" d="M671.4,112.9L561,49.2c-2.4-1.4-4.4,0.1-4.4,3.3v170.6c0,3.3,2,7,4.4,8.4l102.3,59.1l-3.8,2.2
				c2.4,1.4,4.4,5.2,4.4,8.4v0.2l10.3-6v0c1-0.5,1.6-1.8,1.6-3.6V121.4C675.8,118.1,673.8,114.4,671.4,112.9z"/>
			<path class="st1" d="M671.4,112.9L561,49.2c-2.4-1.4-4.4,0.1-4.4,3.3V63c28.9,15,108.9,61.6,108.9,64.3v170.6
				c0,1.8-0.6,3.1-1.6,3.6v0l10.3-6v0c1-0.5,1.6-1.8,1.6-3.6V121.4C675.8,118.1,673.8,114.4,671.4,112.9z"/>
			<path class="st1" d="M671.4,112.9L561,49.2c-0.9-0.7-2.1-0.7-3.1-0.1L547.7,55l2.3,1.3l-3.7,2.2l119.2,69l10.3-6v-0.2
				C675.8,118.1,673.8,114.4,671.4,112.9z"/>
			<path class="st1" d="M661.1,301.2l-110.4-63.7c-2.4-1.4-4.4-5.2-4.4-8.4V58.5c0-3.3,119.2,65.6,119.2,68.8v170.6
				C665.5,301.2,663.5,302.7,661.1,301.2z"/>
			<path class="st1" d="M665.5,127.5L546.3,58.7v-0.2c0-3.3,2-4.7,4.4-3.3l110.4,63.7c2.4,1.4,4.4,5.2,4.4,8.4V127.5z"/>
			<path class="st1" d="M671.4,112.9L561,49.2c-0.9-0.7-2.1-0.7-3.1-0.1l-9.9,5.7c0.9-0.4,1.9-0.2,2.7,0.3l110.4,63.7
				c2.4,1.4,4.4,5.2,4.4,8.4v0.2l10.3-6v-0.2C675.8,118.1,673.8,114.4,671.4,112.9z"/>
		</g>
		<path class="st1" d="M650.3,130.7l-108.7-62c-2.4-1.4-4.5-4.2-4.5-1l-1.6,167.5c0,3.3,2,7,4.4,8.4l102.3,59.1l-3.8,2.2
			c2.4,1.4,4.4,5.2,4.4,8.4v0.2l10.3-6v0c1-0.5,1.6-1.8,1.6-3.6V133.5C649.3,128.8,652.8,132.2,650.3,130.7z"/>
		
			<linearGradient id="SVGID_1_" gradientUnits="userSpaceOnUse" x1="556.3181" y1="535.259" x2="690.7109" y2="302.4836" gradientTransform="matrix(1 0 0 -1 -1.4774 595.4172)">
			<stop  offset="0.9469" style="stop-color:#FFFFFF"/>
			<stop  offset="1" style="stop-color:#CCCCCC"/>
		</linearGradient>
		<path class="st4" d="M650.3,128.8L548,70.5c-2.4-1.4-9.5-3.3-9.5,0l-2.9,4.6c28.9,15,108.9,61.6,108.9,64.3V310
			c0,1.8-0.6,3.1-1.6,3.6v0l10.3-6v0c1-0.5,1.6-1.8,1.6-3.6V133.5C654.7,130.3,652.8,130.2,650.3,128.8z"/>
		<path class="st5" d="M650.3,125.1L540,61.4c-0.9-0.7-2.1-0.7-3.1-0.1l-10.2,5.9l2.3,1.3l-3.7,2.2l119.2,69l10.3-6v-0.2
			C654.7,130.3,652.8,126.5,650.3,125.1z"/>
		<path class="st6" d="M640,313.4l-110.4-63.7c-2.4-1.4-4.4-5.2-4.4-8.4V70.7c0-3.3,119.2,65.6,119.2,68.8V310
			C644.4,313.3,642.5,314.8,640,313.4z"/>
		<path class="st5" d="M644.4,139.7L525.2,70.8v-0.2c0-3.3,2-4.7,4.4-3.3L640,131c2.4,1.4,4.4,5.2,4.4,8.4V139.7z"/>
		
			<linearGradient id="SVGID_2_" gradientUnits="userSpaceOnUse" x1="525.0267" y1="486.7756" x2="644.2082" y2="486.7756" gradientTransform="matrix(1 0 0 -1 0 590)">
			<stop  offset="0" style="stop-color:#CCCCCC"/>
			<stop  offset="0.9307" style="stop-color:#CCCCCC"/>
		</linearGradient>
		<path class="st7" d="M644.2,139.7L525,70.8v-0.2c0-3.3,2-4.7,4.4-3.3L639.8,131c2.4,1.4,4.4,5.2,4.4,8.4V139.7z"/>
		<polygon class="st8" points="644.4,290.6 525.2,221.8 525.2,221.3 644.4,290.1 		"/>
		<polygon class="st8" points="584.6,281.4 584.6,256.1 585.1,256.3 585.1,281.6 		"/>
		<path class="st9" d="M552.5,246.1c0.8,0,1.5,0.2,2.2,0.6c0.8,0.5,1.6,1.1,2.2,1.9c0.7,0.8,1.2,1.7,1.6,2.7
			c0.4,0.9,0.6,1.8,0.6,2.8c0.1,0.9-0.2,1.8-0.8,2.4c-0.6,0.5-1.4,0.8-2.1,0.6c-0.1,0-0.2-0.1-0.2-0.2c0-0.1-0.1-0.2-0.1-0.2
			c0,0,0-0.2,0-0.5s0-0.6,0-0.9c0-0.4-0.1-0.8-0.3-1.1c0.2,0.1,0.4,0.2,0.6,0.2c0.2,0,0.3,0.1,0.5,0.1c0.2,0,0.3-0.1,0.5-0.2
			c0.1-0.1,0.2-0.3,0.3-0.5c0.1-0.3,0.1-0.6,0.1-0.9c0-0.6-0.2-1.1-0.4-1.6c0.1-0.4,0.1-0.9,0-1.3c-0.1-0.1-0.3-0.2-0.5-0.2
			c-0.2,0-0.3,0-0.5,0l-0.2,0c-0.3-0.3-0.7-0.6-1.1-0.8c-0.3-0.2-0.7-0.4-1.1-0.5c-0.1-0.1-0.1-0.2-0.2-0.3
			c-0.1-0.1-0.3-0.3-0.5-0.5c-0.1-0.2-0.3-0.3-0.5-0.4c-0.2,0.4-0.2,0.9,0,1.3c-0.3,0.3-0.5,0.7-0.4,1.1c0,0.3,0,0.7,0.1,1
			c0.1,0.3,0.2,0.6,0.3,0.8c0.1,0.2,0.3,0.5,0.5,0.7c0.2,0.2,0.3,0.4,0.5,0.6c0.2,0.2,0.4,0.3,0.6,0.4c-0.2,0.1-0.3,0.3-0.3,0.5
			c-0.1,0-0.2,0-0.3,0c-0.1,0-0.2-0.1-0.3-0.2c-0.1-0.1-0.3-0.2-0.4-0.4c-0.1-0.2-0.2-0.4-0.3-0.6c-0.1-0.2-0.2-0.3-0.3-0.5
			c-0.1-0.1-0.2-0.2-0.3-0.3l-0.1-0.1c0,0-0.1-0.1-0.2-0.1c0,0,0,0,0,0.1c0,0,0,0.1,0.1,0.1c0,0,0,0.1,0.1,0.1l0,0.1
			c0.1,0.1,0.2,0.2,0.2,0.4c0.1,0.1,0.1,0.3,0.2,0.4l0.1,0.2c0,0.2,0.1,0.4,0.2,0.5c0.1,0.2,0.2,0.3,0.4,0.4
			c0.1,0.1,0.3,0.2,0.4,0.3c0.1,0.1,0.2,0.1,0.3,0.2l0.1,0c0,0.2,0,0.4,0,0.6c0,0.2,0,0.3,0,0.4c0,0.1,0,0.1-0.1,0.2
			c0,0-0.1,0-0.2-0.1c-0.9-0.9-1.6-1.9-2.1-3c-0.5-1.1-0.8-2.2-0.8-3.4c0-0.8,0.2-1.5,0.6-2.1C551.3,246.4,551.9,246.1,552.5,246.1z
			 M552,252.2C552,252.2,552,252.1,552,252.2c-0.1-0.1-0.1-0.1-0.1-0.1C551.9,252.1,551.9,252.1,552,252.2
			C552,252.2,552,252.2,552,252.2z M552.2,252.5c0,0,0,0,0-0.1c0-0.1-0.1-0.1-0.1-0.1C552.1,252.3,552.1,252.4,552.2,252.5
			C552.1,252.5,552.2,252.5,552.2,252.5z M552.3,252.9c0,0,0-0.1,0-0.1c0-0.1-0.1-0.1-0.1-0.1C552.2,252.7,552.2,252.7,552.3,252.9
			C552.3,252.9,552.3,252.9,552.3,252.9z M552.6,253.3c0,0,0-0.1,0-0.1c0-0.1-0.1-0.1-0.1-0.1c0,0,0,0.1,0,0.1
			C552.5,253.3,552.5,253.3,552.6,253.3z M552.9,253.6c0,0,0-0.1-0.1-0.1c-0.1-0.1-0.1-0.1-0.1,0c0,0,0,0.1,0.1,0.1
			C552.8,253.7,552.9,253.7,552.9,253.6z M553.3,253.9c0-0.1,0-0.1-0.1-0.1c-0.1,0-0.1,0-0.1,0C553.1,253.8,553.1,253.9,553.3,253.9
			C553.2,253.9,553.3,253.9,553.3,253.9z M553.6,254c0-0.1,0-0.1-0.1-0.1c-0.1,0-0.1,0-0.1,0.1C553.4,254,553.4,254,553.6,254
			C553.6,254.1,553.6,254,553.6,254z"/>
		<path class="st9" d="M619.3,286.2c0.1,0.3,0.2,0.6,0.1,0.9l-1.5,4.9c-0.1,0.2-0.2,0.4-0.4,0.4c-0.2,0.1-0.5,0-0.7-0.1l-5.2-3
			c-0.3-0.2-0.6-0.5-0.8-0.8c-0.3-0.4-0.4-0.7-0.6-1.2c-0.1-0.3-0.1-0.6,0-0.8c0,0,0-0.1,0-0.2s0-0.2,0-0.2c0,0,0-0.1,0-0.1
			c0,0,0-0.1,0-0.1c0,0,0-0.1,0-0.1c0,0,0.1-0.1,0.1-0.1c0,0,0.1-0.1,0.1-0.1c0.1-0.1,0.2-0.3,0.3-0.4c0.1-0.2,0.1-0.3,0.2-0.5
			c0-0.1,0-0.1,0-0.2c0-0.1,0-0.1,0-0.2c0-0.1,0.1-0.1,0.1-0.1c0,0,0.1-0.1,0.1-0.1c0.1-0.1,0.2-0.3,0.2-0.5
			c0.1-0.2,0.1-0.3,0.1-0.5c0-0.1,0-0.1,0-0.2c0-0.1,0-0.2,0-0.2c0-0.1,0.1-0.1,0.1-0.1c0,0,0.1,0,0.1-0.1c0.1-0.1,0.2-0.3,0.2-0.4
			c0.1-0.2,0.1-0.3,0.2-0.5c0-0.1,0-0.1,0-0.2c0-0.1,0-0.1,0-0.2c0,0,0-0.1,0-0.1c0,0,0.1-0.1,0.1-0.1c0,0,0.1-0.1,0.1-0.1
			c0,0,0.1-0.1,0.1-0.1c0-0.1,0.1-0.1,0.1-0.2c0-0.1,0.1-0.1,0.1-0.2c0-0.1,0.1-0.1,0.1-0.1c0,0,0.1-0.1,0.1-0.1c0.1,0,0.1,0,0.2,0
			c0.1,0.1,0.2,0.1,0.3,0.2l0,0c0.1,0,0.2,0.1,0.3,0.1l4.3,2.5c0.3,0.2,0.5,0.4,0.6,0.7c0.1,0.3,0.2,0.6,0.1,0.9l-1.5,4.9
			c-0.1,0.4-0.3,0.7-0.4,0.8c-0.1,0.1-0.4,0-0.7-0.2l-4.9-2.8c-0.1-0.1-0.2-0.1-0.2,0c0,0,0,0.1,0,0.3c0.1,0.4,0.4,0.7,0.8,0.9
			l5.2,3c0.1,0.1,0.2,0.1,0.3,0.1c0.1,0,0.2-0.1,0.2-0.2l1.7-5.4c0-0.1,0-0.2,0-0.4C619.1,285.9,619.2,286,619.3,286.2z
			 M612.9,284.2c0,0.1,0,0.1,0,0.2c0,0.1,0.1,0.1,0.1,0.1l3.4,2c0,0,0.1,0,0.1,0c0,0,0.1,0,0.1-0.1l0.1-0.3c0,0,0-0.1,0-0.2
			c0-0.1-0.1-0.1-0.1-0.1l-3.4-2c0,0-0.1,0-0.1,0c0,0-0.1,0-0.1,0.1L612.9,284.2z M613.4,282.8c0,0.1,0,0.1,0,0.2
			c0,0.1,0.1,0.1,0.1,0.1l3.4,2c0,0,0.1,0,0.1,0c0,0,0.1,0,0.1-0.1l0.1-0.3c0,0,0-0.1,0-0.2c0-0.1-0.1-0.1-0.1-0.1l-3.4-2
			c0,0-0.1,0-0.1,0c0,0-0.1,0-0.1,0.1L613.4,282.8z"/>
		<polygon class="st5" points="617.6,215.3 538.5,169.6 538.5,160.6 617.6,206.3 		"/>
		<polygon class="st9" points="626.8,236.8 538.5,185.8 538.5,181.3 626.8,232.3 		"/>
		<polygon class="st9" points="626.8,250.2 538.5,199.2 538.5,194.7 626.8,245.7 		"/>
		<polygon class="st9" points="626.8,263.6 538.5,212.7 538.5,208.1 626.8,259.1 		"/>
		
			<linearGradient id="SVGID_3_" gradientUnits="userSpaceOnUse" x1="471.3867" y1="286.6965" x2="531.5708" y2="390.9384" gradientTransform="matrix(1 0 0 -1 0 590)">
			<stop  offset="0" style="stop-color:#CCCCCC"/>
			<stop  offset="0.9934" style="stop-color:#F5F5F5"/>
		</linearGradient>
		<polygon class="st10" points="555.3,281.2 454.1,223.4 454.1,210.1 471.6,212.1 542.3,218.5 550.9,254.1 555.3,267.9 		"/>
		<polygon class="st11" points="555.3,281.2 454.1,223.4 454.1,210.1 471.6,212.1 542.3,218.5 550.9,254.1 555.3,267.9 		"/>
		
			<linearGradient id="SVGID_4_" gradientUnits="userSpaceOnUse" x1="462.0502" y1="254.2378" x2="542.8118" y2="394.1209" gradientTransform="matrix(1 0 0 -1 0 590)">
			<stop  offset="0" style="stop-color:#CCCCCC"/>
			<stop  offset="0.9934" style="stop-color:#F5F5F5"/>
		</linearGradient>
		<path class="st12" d="M491.6,352.9l-16.3-4.9l-11.6-83.4l51.3-34.4l15,23.3v13.3l-14.4,8.3c-14.8,8.5-23.9,24.3-23.9,41.3
			L491.6,352.9z"/>
		<path class="st13" d="M491.6,352.9l-16.3-4.9l-11.6-83.4l51.3-34.4l15,23.3v13.3l-14.4,8.3c-14.8,8.5-23.9,24.3-23.9,41.3
			L491.6,352.9z"/>
		
			<linearGradient id="SVGID_5_" gradientUnits="userSpaceOnUse" x1="455.8539" y1="266.4356" x2="529.751" y2="394.4291" gradientTransform="matrix(1 0 0 -1 0 590)">
			<stop  offset="0" style="stop-color:#CCCCCC"/>
			<stop  offset="0.9934" style="stop-color:#F5F5F5"/>
		</linearGradient>
		<path class="st14" d="M554.7,209.8l-100.6,0.3l25.3,14.5l-19.9,11.6c-18.7,10.9-30.1,30.9-30,52.5l0.1,46.1l50.6,22.2l-0.1-39.4
			c-0.1-21.6,11.3-41.6,30-52.5l19.9-11.6l25.3,14.5L554.7,209.8z"/>
		
			<linearGradient id="SVGID_6_" gradientUnits="userSpaceOnUse" x1="623.0501" y1="297.5759" x2="653.5325" y2="252.6544" gradientTransform="matrix(1 0 0 -1 0 590)">
			<stop  offset="0" style="stop-color:#F5F5F5"/>
			<stop  offset="1" style="stop-color:#FFFFFF"/>
		</linearGradient>
		<path class="st15" d="M658.1,324.2c0-11.9-8.4-26.4-18.8-32.4c-5.2-3-9.9-3.3-13.3-1.3l0,0l-15.3,8.8l27.1,45.3l13.9-8
			C655.7,334.9,658.1,330.6,658.1,324.2z"/>
		
			<linearGradient id="SVGID_7_" gradientUnits="userSpaceOnUse" x1="-283.0138" y1="-2283.9531" x2="-252.5314" y2="-2328.8748" gradientTransform="matrix(0.866 0.5 0 -1.1547 858.4619 -2203.4573)">
			<stop  offset="0" style="stop-color:#F5F5F5"/>
			<stop  offset="1" style="stop-color:#FFFFFF"/>
		</linearGradient>
		<path class="st16" d="M643.7,332.5c0,11.9-8.4,16.7-18.8,10.7s-18.8-20.5-18.8-32.4s8.4-16.7,18.8-10.7S643.7,320.6,643.7,332.5z"
			/>
		<path class="st1" d="M658.1,324.2c0-11.9-8.4-26.4-18.8-32.4c-5.2-3-9.9-3.3-13.3-1.3l0,0l-13.6,7.9c3.3-1.5,7.7-1,12.5,1.8
			c10.4,6,18.8,20.5,18.8,32.4c0,6.1-2.2,10.3-5.8,12.2l0,0l13.9-8C655.7,334.9,658.1,330.6,658.1,324.2z"/>
		
			<linearGradient id="SVGID_8_" gradientUnits="userSpaceOnUse" x1="625.4137" y1="299.1161" x2="651.8551" y2="253.3182" gradientTransform="matrix(1 0 0 -1 0 590)">
			<stop  offset="0" style="stop-color:#CCCCCC"/>
			<stop  offset="0.4158" style="stop-color:#F5F5F5"/>
			<stop  offset="0.8629" style="stop-color:#FFFFFF"/>
			<stop  offset="1" style="stop-color:#CCCCCC"/>
		</linearGradient>
		<path class="st17" d="M658.1,324.2c0-11.9-8.4-26.4-18.8-32.4c-5.2-3-9.9-3.3-13.3-1.3l0,0l-13.6,7.9c3.3-1.5,7.7-1,12.5,1.8
			c10.4,6,18.8,20.5,18.8,32.4c0,6.1-2.2,10.3-5.8,12.2l0,0l13.9-8C655.7,334.9,658.1,330.6,658.1,324.2z"/>
		
			<linearGradient id="SVGID_9_" gradientUnits="userSpaceOnUse" x1="618.8484" y1="278.7946" x2="630.9556" y2="257.8244" gradientTransform="matrix(1 0 0 -1 0 590)">
			<stop  offset="0" style="stop-color:#178CE6"/>
			<stop  offset="0.5" style="stop-color:#17B9E6"/>
		</linearGradient>
		<polygon class="st18" points="627.7,320.1 627.7,312.7 622.1,309.5 622.1,316.8 615.6,313.1 615.6,319.5 622.1,323.3 622.1,330.7 
			627.7,333.9 627.7,326.5 634.2,330.3 634.2,323.8 		"/>
		<g class="st19">
			
				<linearGradient id="SVGID_10_" gradientUnits="userSpaceOnUse" x1="606.1448" y1="268.3098" x2="643.6586" y2="268.3098" gradientTransform="matrix(1 0 0 -1 0 590)">
				<stop  offset="0" style="stop-color:#FFFFFF;stop-opacity:0"/>
				<stop  offset="1" style="stop-color:#FFFFFF"/>
			</linearGradient>
			<path class="st20" d="M616.5,297.6v2h0c2.6,0.1,5.2,0.9,7.4,2.3c9.8,5.7,17.8,19.4,17.8,30.6c0,7.1-3.1,11.3-8.3,11.3
				c-2.6-0.1-5.2-0.9-7.4-2.3c-9.8-5.7-17.8-19.4-17.8-30.6c0-7.1,3.1-11.3,8.3-11.3L616.5,297.6 M616.5,297.6
				c-6.1,0-10.3,4.9-10.3,13.3c0,11.9,8.4,26.4,18.8,32.4c2.5,1.6,5.4,2.5,8.4,2.6c6.1,0,10.3-4.9,10.3-13.3
				c0-11.9-8.4-26.4-18.8-32.4C622.4,298.6,619.5,297.7,616.5,297.6z"/>
		</g>
		<g class="st19">
			
				<linearGradient id="SVGID_11_" gradientUnits="userSpaceOnUse" x1="606.1448" y1="268.3502" x2="643.6586" y2="268.3502" gradientTransform="matrix(1 0 0 -1 0 590)">
				<stop  offset="0" style="stop-color:#0A3466"/>
				<stop  offset="1" style="stop-color:#0A3466;stop-opacity:0"/>
			</linearGradient>
			<path class="st21" d="M616.5,297.6v2h0c2.6,0.1,5.2,0.9,7.4,2.3c9.8,5.7,17.8,19.4,17.8,30.6c0,7.1-3.1,11.3-8.3,11.3
				c-2.6-0.1-5.2-0.9-7.4-2.3c-9.8-5.7-17.8-19.4-17.8-30.6c0-7.1,3.1-11.3,8.3-11.3L616.5,297.6 M616.5,297.6
				c-6.1,0-10.3,4.9-10.3,13.3c0,11.9,8.4,26.4,18.8,32.4c2.5,1.6,5.4,2.5,8.4,2.6c6.1,0,10.3-4.9,10.3-13.3
				c0-11.9-8.4-26.4-18.8-32.4C622.4,298.5,619.5,297.7,616.5,297.6z"/>
		</g>
		<g class="st0">
			<path class="st1" d="M15.7,76.8l110.4-63.7c2.4-1.4,4.4,0.1,4.4,3.3V187c0,3.3-2,7-4.4,8.4L23.8,254.5l3.8,2.2
				c-2.4,1.4-4.4,5.2-4.4,8.4v0.2l-10.3-6v0c-1-0.5-1.6-1.8-1.6-3.6V85.2C11.3,82,13.3,78.2,15.7,76.8z"/>
			<path class="st1" d="M15.7,76.8l110.4-63.7c2.4-1.4,4.4,0.1,4.4,3.3v10.5c-28.9,15-108.9,61.6-108.9,64.3v170.6
				c0,1.8,0.6,3.1,1.6,3.6v0l-10.3-6v0c-1-0.5-1.6-1.8-1.6-3.6V85.2C11.3,82,13.3,78.2,15.7,76.8z"/>
			<path class="st1" d="M15.7,76.8l110.4-63.7c0.9-0.7,2.1-0.7,3.1-0.1l10.2,5.9l-2.3,1.3l3.7,2.2l-119.2,69l-10.3-6v-0.2
				C11.3,82,13.3,78.2,15.7,76.8z"/>
			<path class="st1" d="M26,265.1l110.4-63.7c2.4-1.4,4.4-5.2,4.4-8.4V22.4c0-3.3-119.2,65.6-119.2,68.8v170.6
				C21.6,265,23.6,266.5,26,265.1z"/>
			<path class="st1" d="M21.6,91.4l119.2-68.8v-0.2c0-3.3-2-4.7-4.4-3.3L26,82.8c-2.4,1.4-4.4,5.2-4.4,8.4L21.6,91.4z"/>
			<path class="st1" d="M15.7,76.8l110.4-63.7c0.9-0.7,2.1-0.7,3.1-0.1l9.9,5.7c-0.9-0.4-1.9-0.2-2.7,0.3L26,82.8
				c-2.4,1.4-4.4,5.2-4.4,8.4v0.2l-10.3-6v-0.2C11.3,82,13.3,78.2,15.7,76.8z"/>
		</g>
		<g class="st0">
			<path class="st1" d="M36.5,88.7L146.8,25c2.4-1.4,4.4,0.1,4.4,3.3v170.6c0,3.3-2,7-4.4,8.4L44.5,266.5l3.8,2.2
				c-2.4,1.4-4.4,5.2-4.4,8.4v0.2l-10.3-6v0c-1-0.5-1.6-1.8-1.6-3.6V97.2C32.1,93.9,34,90.2,36.5,88.7z"/>
			<path class="st1" d="M36.5,88.7L146.8,25c2.4-1.4,4.4,0.1,4.4,3.3v10.5c-28.9,15-108.9,61.6-108.9,64.3v170.6
				c0,1.8,0.6,3.1,1.6,3.6v0l-10.3-6v0c-1-0.5-1.6-1.8-1.6-3.6V97.2C32.1,93.9,34,90.2,36.5,88.7z"/>
			<path class="st1" d="M36.5,88.7L146.8,25c0.9-0.7,2.1-0.7,3.1-0.1l10.2,5.9l-2.3,1.3l3.7,2.2l-119.2,69l-10.3-6v-0.2
				C32.1,93.9,34,90.2,36.5,88.7z"/>
			<path class="st1" d="M46.8,277l110.4-63.7c2.4-1.4,4.4-5.2,4.4-8.4V34.3c0-3.3-119.2,65.6-119.2,68.8v170.6
				C42.4,277,44.3,278.5,46.8,277z"/>
			<path class="st1" d="M42.4,103.3l119.2-68.8v-0.2c0-3.3-2-4.7-4.4-3.3L46.8,94.7c-2.4,1.4-4.4,5.2-4.4,8.4V103.3z"/>
			<path class="st1" d="M36.5,88.7L146.8,25c0.9-0.7,2.1-0.7,3.1-0.1l9.9,5.7c-0.9-0.4-1.9-0.2-2.7,0.3L46.8,94.7
				c-2.4,1.4-4.4,5.2-4.4,8.4v0.2l-10.3-6v-0.2C32.1,93.9,34,90.2,36.5,88.7z"/>
		</g>
		<g class="st2">
			<path class="st1" d="M57.1,100.8l110.4-63.7c2.4-1.4,4.4,0.1,4.4,3.3V211c0,3.3-2,7-4.4,8.4L65.2,278.5l3.8,2.2
				c-2.4,1.4-4.4,5.2-4.4,8.4v0.2l-10.3-6v0c-1-0.5-1.6-1.8-1.6-3.6V109.3C52.7,106,54.7,102.2,57.1,100.8z"/>
			<path class="st1" d="M57.1,100.8l110.4-63.7c2.4-1.4,4.4,0.1,4.4,3.3v10.5C143,65.9,63,112.5,63,115.2v170.6
				c0,1.8,0.6,3.1,1.6,3.6v0l-10.3-6v0c-1-0.5-1.6-1.8-1.6-3.6V109.3C52.7,106,54.7,102.2,57.1,100.8z"/>
			<path class="st1" d="M57.1,100.8l110.4-63.7c0.9-0.7,2.1-0.7,3.1-0.1l10.2,5.9l-2.3,1.3l3.7,2.2L63,115.4l-10.3-6v-0.2
				C52.7,106,54.7,102.2,57.1,100.8z"/>
			<path class="st1" d="M67.4,289.1l110.4-63.7c2.4-1.4,4.4-5.2,4.4-8.4V46.4C182.2,43.1,63,112,63,115.2v170.6
				C63,289,65,290.5,67.4,289.1z"/>
			<path class="st1" d="M63,115.4l119.2-68.8v-0.2c0-3.3-2-4.7-4.4-3.3L67.4,106.8c-2.4,1.4-4.4,5.2-4.4,8.4V115.4z"/>
			<path class="st1" d="M57.1,100.8l110.4-63.7c0.9-0.7,2.1-0.7,3.1-0.1l9.9,5.7c-0.9-0.4-1.9-0.2-2.7,0.3L67.4,106.8
				c-2.4,1.4-4.4,5.2-4.4,8.4v0.2l-10.3-6v-0.2C52.7,106,54.7,102.2,57.1,100.8z"/>
		</g>
		<g class="st3">
			<path class="st1" d="M78.2,112.9l110.4-63.7c2.4-1.4,4.4,0.1,4.4,3.3v170.6c0,3.3-2,7-4.4,8.4L86.2,290.7l3.8,2.2
				c-2.4,1.4-4.4,5.2-4.4,8.4v0.2l-10.3-6v0c-1-0.5-1.6-1.8-1.6-3.6V121.4C73.8,118.1,75.8,114.4,78.2,112.9z"/>
			<path class="st1" d="M78.2,112.9l110.4-63.7c2.4-1.4,4.4,0.1,4.4,3.3V63C164,78,84.1,124.7,84.1,127.3v170.6
				c0,1.8,0.6,3.1,1.6,3.6v0l-10.3-6v0c-1-0.5-1.6-1.8-1.6-3.6V121.4C73.8,118.1,75.8,114.4,78.2,112.9z"/>
			<path class="st1" d="M78.2,112.9l110.4-63.7c0.9-0.7,2.1-0.7,3.1-0.1l10.2,5.9l-2.3,1.3l3.7,2.2l-119.2,69l-10.3-6v-0.2
				C73.8,118.1,75.8,114.4,78.2,112.9z"/>
			<path class="st1" d="M88.5,301.2l110.4-63.7c2.4-1.4,4.4-5.2,4.4-8.4V58.5c0-3.3-119.2,65.6-119.2,68.8v170.6
				C84.1,301.2,86.1,302.7,88.5,301.2z"/>
			<path class="st1" d="M84.1,127.5l119.2-68.8v-0.2c0-3.3-2-4.7-4.4-3.3L88.5,118.9c-2.4,1.4-4.4,5.2-4.4,8.4L84.1,127.5z"/>
			<path class="st1" d="M78.2,112.9l110.4-63.7c0.9-0.7,2.1-0.7,3.1-0.1l9.9,5.7c-0.9-0.4-1.9-0.2-2.7,0.3L88.5,118.9
				c-2.4,1.4-4.4,5.2-4.4,8.4v0.2l-10.3-6v-0.2C73.8,118.1,75.8,114.4,78.2,112.9z"/>
		</g>
		<path class="st22" d="M143.9,207.4L143.9,207.4C143.9,207.4,143.9,207.5,143.9,207.4L143.9,207.4z"/>
		<path class="st1" d="M99.3,125.1l107.2-56.3c2.4-1.4,6.3-5.1,6.3-1.8l1.3,168.4c0,3.3-2,7-4.4,8.4l-102.3,59.1l3.8,2.2
			c-2.4,1.4-4.4,5.2-4.4,8.4v0.2l-10.3-6v0c-1-0.5-1.6-1.8-1.6-3.6V133.5C94.8,130.3,96.8,126.5,99.3,125.1z"/>
		
			<linearGradient id="SVGID_12_" gradientUnits="userSpaceOnUse" x1="10049.9668" y1="438.6336" x2="10188.457" y2="198.7623" gradientTransform="matrix(-1 0 0 -1 10248.4375 491.6659)">
			<stop  offset="0.9469" style="stop-color:#FFFFFF"/>
			<stop  offset="1" style="stop-color:#CCCCCC"/>
		</linearGradient>
		<path class="st23" d="M99.3,125.1l110.4-63.7c2.4-1.4,4.4,0.1,4.4,3.3v10.5c-28.9,15-108.9,61.6-108.9,64.3V310
			c0,1.8,0.6,3.1,1.6,3.6v0l-10.3-6v0c-1-0.5-1.6-1.8-1.6-3.6V133.5C94.8,130.3,96.8,126.5,99.3,125.1z"/>
		<path class="st5" d="M99.3,125.1l110.4-63.7c0.9-0.7,2.1-0.7,3.1-0.1l10.2,5.9l-2.3,1.3l3.7,2.2l-119.2,69l-10.3-6v-0.2
			C94.8,130.3,96.8,126.5,99.3,125.1z"/>
		<path class="st6" d="M109.6,313.4l110.4-63.7c2.4-1.4,4.4-5.2,4.4-8.4V70.7c0-3.3-119.2,65.6-119.2,68.8V310
			C105.2,313.3,107.1,314.8,109.6,313.4z"/>
		<path class="st5" d="M105.2,139.7l119.2-68.8v-0.2c0-3.3-2-4.7-4.4-3.3L109.6,131c-2.4,1.4-4.4,5.2-4.4,8.4L105.2,139.7z"/>
		
			<linearGradient id="SVGID_13_" gradientUnits="userSpaceOnUse" x1="10060.0303" y1="444.1379" x2="10121.6494" y2="337.4119" gradientTransform="matrix(-1 0 0 -1 10248.4375 491.6659)">
			<stop  offset="0" style="stop-color:#CCCCCC"/>
			<stop  offset="0.9307" style="stop-color:#CCCCCC"/>
			<stop  offset="1" style="stop-color:#FFFFFF"/>
		</linearGradient>
		<path class="st24" d="M99.3,125.1l110.4-63.7c0.9-0.7,2.1-0.7,3.1-0.1l9.9,5.7c-0.9-0.4-1.9-0.2-2.7,0.3L109.6,131
			c-2.4,1.4-4.4,5.2-4.4,8.4v0.2l-10.3-6v-0.2C94.8,130.3,96.8,126.5,99.3,125.1z"/>
		<polygon class="st8" points="224.3,221.8 105.2,290.6 105.2,290.1 224.3,221.3 		"/>
		<polygon class="st8" points="164.5,281.6 164.5,256.3 165,256.1 165,281.4 		"/>
		<path class="st9" d="M132.4,283.4c0.6-0.8,1.3-1.4,2.2-1.9c0.6-0.4,1.4-0.6,2.2-0.6c0.6,0,1.2,0.4,1.6,0.9
			c0.4,0.6,0.6,1.4,0.6,2.1c0,1.2-0.3,2.3-0.8,3.4c-0.5,1.1-1.2,2.1-2.1,3c-0.1,0.1-0.2,0.1-0.2,0.1c-0.1,0-0.1-0.1-0.1-0.2
			c0,0,0-0.2,0-0.5s0-0.6,0-0.9c0-0.4-0.1-0.7-0.3-0.7c0.2-0.1,0.4-0.3,0.6-0.4c0.2-0.2,0.4-0.4,0.5-0.6c0.2-0.2,0.3-0.4,0.5-0.7
			c0.1-0.3,0.2-0.6,0.3-0.8c0.1-0.3,0.1-0.7,0.1-1c0-0.4-0.1-0.8-0.4-1.1c0.1-0.4,0.1-0.9,0-1.3c-0.2,0.1-0.3,0.2-0.5,0.3
			c-0.2,0.2-0.4,0.4-0.5,0.6l-0.2,0.3c-0.4,0.1-0.7,0.3-1.1,0.5c-0.4,0.2-0.7,0.5-1.1,0.8c-0.1,0-0.2,0-0.2,0c-0.2,0-0.3,0-0.5,0
			c-0.2,0-0.3,0.1-0.5,0.2c-0.2,0.4-0.2,0.9,0,1.3c-0.3,0.5-0.4,1-0.4,1.6c0,0.3,0,0.6,0.1,0.9c0.1,0.2,0.2,0.4,0.3,0.5
			c0.1,0.1,0.3,0.2,0.5,0.2c0.2,0,0.4,0,0.5-0.1c0.2-0.1,0.4-0.1,0.6-0.2c-0.1,0.3-0.2,0.5-0.3,0.8c-0.1,0.1-0.2,0.2-0.3,0.2
			c-0.1,0.1-0.2,0.2-0.3,0.2c-0.1,0.1-0.2,0.1-0.4,0.1c-0.1,0-0.2-0.1-0.3-0.2c-0.1-0.1-0.2-0.2-0.3-0.2c-0.1,0-0.2,0-0.3,0l-0.1,0
			c-0.1,0-0.1,0.1-0.2,0.1c0,0,0,0.1,0,0.1c0,0,0,0,0.1,0.1c0,0,0,0,0.1,0l0,0c0.1,0,0.2,0,0.2,0.1c0.1,0.1,0.1,0.1,0.2,0.2l0.1,0.1
			c0,0.1,0.1,0.2,0.2,0.3c0.1,0,0.3,0,0.4,0c0.1,0,0.3-0.1,0.4-0.2c0.1-0.1,0.2-0.1,0.3-0.2l0.1-0.1c0,0.2,0,0.4,0,0.6
			c0,0.2,0,0.3,0,0.3c0,0.1,0,0.2-0.1,0.2c-0.1,0.1-0.1,0.1-0.2,0.2c-0.8,0.2-1.6,0-2.1-0.6c-0.6-0.7-0.9-1.5-0.8-2.4
			c0-1,0.2-1.9,0.6-2.8C131.2,285.1,131.8,284.2,132.4,283.4z M131.9,290.1C131.9,290.1,131.9,290,131.9,290.1c-0.1,0-0.1,0-0.1,0
			C131.8,290.1,131.8,290.2,131.9,290.1C131.9,290.2,131.9,290.1,131.9,290.1L131.9,290.1z M132.1,290.2
			C132.1,290.2,132.1,290.2,132.1,290.2C132.1,290.1,132,290.1,132.1,290.2c-0.1-0.1-0.1-0.1-0.1-0.1
			C132,290.2,132,290.2,132.1,290.2C132,290.2,132,290.3,132.1,290.2C132,290.3,132.1,290.3,132.1,290.2L132.1,290.2z M132.3,290.4
			c0,0,0-0.1,0-0.1c0,0-0.1,0-0.1,0C132.1,290.3,132.1,290.4,132.3,290.4C132.2,290.4,132.2,290.4,132.3,290.4
			C132.2,290.5,132.2,290.5,132.3,290.4z M132.5,290.5c0-0.1,0-0.1,0-0.1c0,0-0.1,0-0.1,0c0,0.1,0,0.1,0,0.1
			C132.4,290.6,132.5,290.6,132.5,290.5L132.5,290.5z M132.8,290.5C132.8,290.5,132.8,290.4,132.8,290.5c-0.1,0-0.2,0-0.2,0
			c0,0.1,0,0.1,0.1,0.1C132.8,290.6,132.8,290.6,132.8,290.5L132.8,290.5z M133.2,290.4C133.2,290.3,133.1,290.3,133.2,290.4
			c-0.1,0-0.2,0.1-0.2,0.1c0,0.1,0,0.1,0.1,0C133.1,290.5,133.2,290.4,133.2,290.4z M133.5,290.1c0,0,0,0-0.1,0
			c-0.1,0-0.1,0.1-0.1,0.1c0,0,0,0,0.1,0C133.5,290.2,133.5,290.1,133.5,290.1L133.5,290.1z"/>
		<path class="st9" d="M199.2,246.4c0.2,0.2,0.2,0.5,0.1,0.8l-1.5,6.7c-0.1,0.3-0.2,0.7-0.4,0.9c-0.2,0.3-0.4,0.5-0.7,0.7l-5.2,3
			c-0.2,0.2-0.5,0.2-0.8,0.1c-0.3-0.1-0.5-0.3-0.6-0.5c-0.1-0.3-0.1-0.5,0-0.8c0,0,0-0.1,0-0.2s0-0.2,0-0.3c0,0,0-0.1,0-0.1
			c0,0,0-0.1,0-0.1c0-0.1,0-0.1,0-0.2c0-0.1,0.1-0.1,0.1-0.2c0-0.1,0.1-0.1,0.1-0.2c0.1-0.2,0.2-0.5,0.3-0.7
			c0.1-0.2,0.1-0.5,0.2-0.7c0-0.1,0-0.1,0-0.2c0-0.1,0-0.1,0-0.2c0-0.1,0.1-0.2,0.1-0.2c0.1-0.1,0.1-0.2,0.1-0.2
			c0.1-0.2,0.2-0.5,0.2-0.7c0.1-0.2,0.1-0.4,0.1-0.7c0-0.1,0-0.1,0-0.2c0-0.1,0-0.1,0-0.2c0-0.1,0.1-0.2,0.1-0.3
			c0.1-0.1,0.1-0.2,0.1-0.2c0.1-0.2,0.2-0.4,0.2-0.7c0.1-0.2,0.1-0.5,0.2-0.7c0-0.1,0-0.1,0-0.2c0-0.1,0-0.1,0-0.2c0,0,0-0.1,0-0.1
			c0-0.1,0.1-0.1,0.1-0.2c0-0.1,0.1-0.1,0.1-0.2c0-0.1,0.1-0.2,0.1-0.3c0-0.1,0.1-0.2,0.1-0.3c0-0.1,0.1-0.2,0.1-0.3
			c0-0.1,0.1-0.2,0.1-0.3c0-0.1,0.1-0.2,0.1-0.2c0.1-0.1,0.1-0.1,0.2-0.2c0.1,0,0.2-0.1,0.3-0.1l0,0c0.1-0.1,0.2-0.2,0.3-0.2
			l4.3-2.5c0.3-0.2,0.5-0.2,0.6,0c0.2,0.2,0.2,0.5,0.1,0.8l-1.5,6.7c-0.1,0.4-0.2,0.8-0.4,1.2c-0.2,0.3-0.4,0.5-0.7,0.6l-4.9,2.8
			c-0.1,0-0.2,0.1-0.2,0.2c0,0.1,0,0.2,0,0.3c0.1,0.2,0.4,0.2,0.8,0l5.2-3c0.1-0.1,0.2-0.2,0.3-0.3c0.1-0.1,0.2-0.2,0.2-0.4l1.7-7.3
			c0-0.1,0-0.3,0-0.4C199,246.3,199.1,246.3,199.2,246.4z M192.8,251.8c0,0,0,0.1,0,0.1c0,0,0.1,0,0.1,0l3.4-2
			c0.1,0,0.1-0.1,0.1-0.1c0-0.1,0.1-0.1,0.1-0.2l0.1-0.5c0,0,0-0.1,0-0.1c0,0-0.1,0-0.1,0l-3.4,2c-0.1,0-0.1,0.1-0.1,0.1
			c0,0.1-0.1,0.1-0.1,0.2L192.8,251.8z M193.3,249.9c0,0,0,0.1,0,0.1c0,0,0.1,0,0.1,0l3.4-2c0.1,0,0.1-0.1,0.1-0.1
			c0-0.1,0.1-0.1,0.1-0.2l0.1-0.5c0,0,0-0.1,0-0.1c0,0-0.1,0-0.1,0l-3.4,2c-0.1,0-0.1,0.1-0.1,0.1c0,0.1-0.1,0.1-0.1,0.2
			L193.3,249.9z"/>
		<polygon class="st5" points="197.5,177.4 118.4,223.1 118.4,214.1 197.5,168.4 		"/>
		<polygon class="st9" points="206.7,188.3 118.4,239.3 118.4,234.8 206.7,183.8 		"/>
		<polygon class="st9" points="206.7,201.8 118.4,252.7 118.4,248.2 206.7,197.2 		"/>
		<polygon class="st9" points="206.7,215.2 118.4,266.2 118.4,261.7 206.7,210.7 		"/>
		
			<linearGradient id="SVGID_14_" gradientUnits="userSpaceOnUse" x1="215.7912" y1="394.7913" x2="295.774" y2="256.257" gradientTransform="matrix(1 0 0 -1 0 590)">
			<stop  offset="6.599999e-03" style="stop-color:#F5F5F5"/>
			<stop  offset="1" style="stop-color:#CCCCCC"/>
		</linearGradient>
		<polygon class="st25" points="194.3,281.2 295.5,223.4 295.5,210.1 278,212.1 207.3,218.5 198.7,254.1 194.3,267.9 		"/>
		<polygon class="st26" points="194.3,281.2 295.5,223.4 295.5,210.1 278,212.1 207.3,218.5 198.7,254.1 194.3,267.9 		"/>
		
			<linearGradient id="SVGID_15_" gradientUnits="userSpaceOnUse" x1="209.128" y1="390.0452" x2="291.116" y2="248.0378" gradientTransform="matrix(1 0 0 -1 0 590)">
			<stop  offset="6.599999e-03" style="stop-color:#F5F5F5"/>
			<stop  offset="1" style="stop-color:#CCCCCC"/>
		</linearGradient>
		<path class="st27" d="M258,352.9l16.3-4.9l11.6-83.4l-51.3-34.4l-15,23.3v13.3l14.4,8.3c14.8,8.5,23.9,24.3,23.9,41.3L258,352.9z"
			/>
		<path class="st11" d="M258,352.9l16.3-4.9l11.6-83.4l-51.3-34.4l-15,23.3v13.3l14.4,8.3c14.8,8.5,23.9,24.3,23.9,41.3L258,352.9z"
			/>
		
			<linearGradient id="SVGID_16_" gradientUnits="userSpaceOnUse" x1="218.1885" y1="397.2821" x2="302.2411" y2="251.6988" gradientTransform="matrix(1 0 0 -1 0 590)">
			<stop  offset="6.599999e-03" style="stop-color:#F5F5F5"/>
			<stop  offset="1" style="stop-color:#CCCCCC"/>
		</linearGradient>
		<path class="st28" d="M194.9,209.8l100.6,0.3l-25.3,14.5l19.9,11.6c18.7,10.9,30.1,30.9,30,52.5l-0.1,46.1l-50.6,22.2l0.1-39.4
			c0.1-21.6-11.3-41.6-30-52.5l-19.9-11.6l-25.3,14.5L194.9,209.8z"/>
		
			<linearGradient id="SVGID_17_" gradientUnits="userSpaceOnUse" x1="10357.2305" y1="297.5758" x2="10387.7129" y2="252.6543" gradientTransform="matrix(-1 0 0 -1 10483.0928 590)">
			<stop  offset="0" style="stop-color:#F5F5F5"/>
			<stop  offset="1" style="stop-color:#FFFFFF"/>
		</linearGradient>
		<path class="st29" d="M90.8,324.2c0-11.9,8.4-26.4,18.8-32.4c5.2-3,9.9-3.3,13.3-1.3l0,0l15.3,8.8L111,344.7l-13.9-8
			C93.2,334.9,90.8,330.6,90.8,324.2z"/>
		
			<linearGradient id="SVGID_18_" gradientUnits="userSpaceOnUse" x1="10982.0771" y1="2583.8557" x2="10955.2129" y2="2537.325" gradientTransform="matrix(-0.866 0.5 0 -1.1547 9624.6309 -2203.4573)">
			<stop  offset="0" style="stop-color:#F5F5F5"/>
			<stop  offset="1" style="stop-color:#FFFFFF"/>
		</linearGradient>
		<path class="st30" d="M105.3,332.5c0,11.9,8.4,16.7,18.8,10.7s18.8-20.5,18.8-32.4s-8.4-16.7-18.8-10.7S105.3,320.6,105.3,332.5z"
			/>
		<path class="st8" d="M90.8,324.2c0-11.9,8.4-26.4,18.8-32.4c5.2-3,9.9-3.3,13.3-1.3l0,0l13.6,7.9c-3.3-1.5-7.7-1-12.5,1.8
			c-10.4,6-18.8,20.5-18.8,32.4c0,6.1,2.2,10.3,5.8,12.2l0,0l-13.9-8C93.2,334.9,90.8,330.6,90.8,324.2z"/>
		
			<linearGradient id="SVGID_19_" gradientUnits="userSpaceOnUse" x1="10359.5938" y1="299.1161" x2="10386.0352" y2="253.3182" gradientTransform="matrix(-1 0 0 -1 10483.0928 590)">
			<stop  offset="0" style="stop-color:#F5F5F5"/>
			<stop  offset="0.1371" style="stop-color:#FFFFFF"/>
			<stop  offset="0.3178" style="stop-color:#F5F5F5"/>
			<stop  offset="0.8559" style="stop-color:#CCCCCC"/>
		</linearGradient>
		<path class="st31" d="M90.8,324.2c0-11.9,8.4-26.4,18.8-32.4c5.2-3,9.9-3.3,13.3-1.3l0,0l13.6,7.9c-3.3-1.5-7.7-1-12.5,1.8
			c-10.4,6-18.8,20.5-18.8,32.4c0,6.1,2.2,10.3,5.8,12.2l0,0l-13.9-8C93.2,334.9,90.8,330.6,90.8,324.2z"/>
		
			<linearGradient id="SVGID_20_" gradientUnits="userSpaceOnUse" x1="10363.6758" y1="276.2662" x2="10354.4883" y2="260.3535" gradientTransform="matrix(-1 0 0 -1 10483.0928 590)">
			<stop  offset="0" style="stop-color:#178CE6"/>
			<stop  offset="0.5" style="stop-color:#17B9E6"/>
		</linearGradient>
		<polygon class="st32" points="121.2,320.1 121.2,312.7 126.8,309.5 126.8,316.8 133.3,313.1 133.3,319.5 126.8,323.3 126.8,330.7 
			121.2,333.9 121.2,326.5 114.7,330.3 114.7,323.8 		"/>
		<g class="st19">
			
				<linearGradient id="SVGID_21_" gradientUnits="userSpaceOnUse" x1="142.7678" y1="268.3098" x2="105.254" y2="268.3098" gradientTransform="matrix(1 0 0 -1 0 590)">
				<stop  offset="0" style="stop-color:#FFFFFF;stop-opacity:0"/>
				<stop  offset="1" style="stop-color:#FFFFFF"/>
			</linearGradient>
			<path class="st33" d="M132.4,299.6c5.2,0,8.3,4.2,8.3,11.3c0,11.2-8,25-17.8,30.6c-2.2,1.4-4.8,2.2-7.4,2.3
				c-5.2,0-8.3-4.2-8.3-11.3c0-11.2,8-25,17.8-30.6C127.2,300.5,129.8,299.7,132.4,299.6 M132.4,297.6c-3,0.1-5.9,1-8.4,2.6
				c-10.4,6-18.8,20.5-18.8,32.4c0,8.4,4.2,13.3,10.3,13.3c3-0.1,5.9-1,8.4-2.6c10.4-6,18.8-20.5,18.8-32.4
				C142.8,302.4,138.6,297.6,132.4,297.6L132.4,297.6z"/>
		</g>
		<g class="st19">
			
				<linearGradient id="SVGID_22_" gradientUnits="userSpaceOnUse" x1="142.7678" y1="268.3502" x2="105.254" y2="268.3502" gradientTransform="matrix(1 0 0 -1 0 590)">
				<stop  offset="0" style="stop-color:#0A3466"/>
				<stop  offset="1" style="stop-color:#0A3466;stop-opacity:0"/>
			</linearGradient>
			<path class="st34" d="M132.4,299.6c5.2,0,8.3,4.2,8.3,11.3c0,11.2-8,25-17.8,30.6c-2.2,1.4-4.8,2.2-7.4,2.3
				c-5.2,0-8.3-4.2-8.3-11.3c0-11.2,8-25,17.8-30.6C127.2,300.5,129.8,299.7,132.4,299.6 M132.4,297.6c-3,0.1-5.9,1-8.4,2.6
				c-10.4,6-18.8,20.5-18.8,32.4c0,8.4,4.2,13.3,10.3,13.3c3-0.1,5.9-1,8.4-2.6c10.4-6,18.8-20.5,18.8-32.4
				C142.8,302.4,138.6,297.6,132.4,297.6z"/>
		</g>
		<path class="st11" d="M532,488.3c2.9-1.7,3.9-5.4,2.2-8.3c-0.5-0.9-1.3-1.7-2.2-2.2l-19.1-11.1l-28.9-16.2L352,327.3L148,445.1
			c-4.8,2.7-6.4,8.8-3.6,13.6c0.9,1.5,2.1,2.8,3.6,3.6L289,543.5c2.7,1.6,5.8,2.4,9,2.4H345l49.6,28.7c2.6,1.5,5.7,2.3,8.7,2.3
			l4.4,0c3,0,6-0.8,8.6-2.3l36.8-21.1c3.9-2.3,5.3-7.3,3-11.3c-0.1-0.1-0.1-0.2-0.2-0.3l34.7-19.9c3.9-2.3,5.3-7.3,3-11.3
			c0,0,0,0,0,0L532,488.3z"/>
		<g class="st0">
			<path d="M363.8,539.6L226,460c-6.4-3.7-5.6-10.1,1.8-14.3L361,368.8c7.3-4.2,18.4-4.7,24.8-1l131.8,79.5
				c6.4,3.7,5.6,10.1-1.8,14.3l-127.2,76.9C381.2,542.8,370.1,543.2,363.8,539.6z"/>
			
				<image style="overflow:visible;enable-background:new    ;" width="307" height="184" xlink:href="EADBD8D8AD85F40E.png"  transform="matrix(1 0 0 1 218 361.5369)">
			</image>
		</g>
		
			<linearGradient id="SVGID_23_" gradientUnits="userSpaceOnUse" x1="333.2885" y1="214.3296" x2="417.4986" y2="68.4734" gradientTransform="matrix(1 0 0 -1 0 590)">
			<stop  offset="0" style="stop-color:#178CE6"/>
			<stop  offset="0.5" style="stop-color:#17B9E6"/>
		</linearGradient>
		<path class="st35" d="M527.8,440.1h-16.3l-125.8-72.6c-6.4-3.7-17.5-3.2-24.8,1l-124,71.6h-15.3v13.3h0c-0.1,2.4,1.3,4.7,4.3,6.4
			l137.8,79.5c6.4,3.7,17.5,3.2,24.8-1l133.2-76.9c3.9-2.3,6-5.2,6.1-8h0L527.8,440.1z"/>
		
			<linearGradient id="SVGID_24_" gradientUnits="userSpaceOnUse" x1="324.478" y1="237.0734" x2="412.2075" y2="85.1215" gradientTransform="matrix(1 0 0 -1 0 590)">
			<stop  offset="0" style="stop-color:#178CE6"/>
			<stop  offset="0.5" style="stop-color:#17B9E6"/>
		</linearGradient>
		<path class="st36" d="M363.8,526L226,446.4c-6.4-3.7-5.6-10.1,1.8-14.3L361,355.2c7.3-4.2,18.4-4.7,24.8-1l137.8,79.5
			c6.4,3.7,5.6,10.1-1.8,14.3l-133.2,76.9C381.2,529.2,370.1,529.6,363.8,526z"/>
		
			<linearGradient id="SVGID_25_" gradientUnits="userSpaceOnUse" x1="221.7413" y1="99.1" x2="527.8514" y2="99.1" gradientTransform="matrix(1 0 0 -1 0 590)">
			<stop  offset="0" style="stop-color:#CCCCCC"/>
			<stop  offset="0.1065" style="stop-color:#D9D9D9"/>
			<stop  offset="0.3756" style="stop-color:#D9D9D9"/>
			<stop  offset="0.4946" style="stop-color:#CCCCCC"/>
			<stop  offset="0.6156" style="stop-color:#FFFFFF"/>
			<stop  offset="0.9279" style="stop-color:#FFFFFF"/>
			<stop  offset="1" style="stop-color:#CCCCCC"/>
		</linearGradient>
		<path class="st37" d="M226,459.7l137.8,79.5c6.4,3.7,17.5,3.2,24.8-1l133.2-76.9c3.9-2.3,6-5.2,6.1-8h0v-13.3h0
			c-0.1,2.8-2.1,5.7-6.1,8l-133.2,76.9c-7.3,4.2-18.4,4.7-24.8,1L226,446.4c-2.9-1.7-4.3-4-4.3-6.4h0v13.3h0
			C221.7,455.7,223.1,458,226,459.7z"/>
		
			<linearGradient id="SVGID_26_" gradientUnits="userSpaceOnUse" x1="221.7375" y1="137.8872" x2="528.8458" y2="137.8872" gradientTransform="matrix(1 0 0 -1 0 590)">
			<stop  offset="0" style="stop-color:#F5F5F5"/>
			<stop  offset="1" style="stop-color:#FFFFFF"/>
		</linearGradient>
		<path class="st38" d="M528.8,436.9v-13.2h-16.2l-126.4-73c-6.4-3.7-16.6-3.7-22.9,0L238.2,423h-16.5v13.2h0
			c-0.1,2.4,1.5,4.9,4.8,6.8l191.4,110.5c6.4,3.7,16.6,3.7,22.9,0l30.4-17.5c3.1-1.8,4.6-4.1,4.7-6.4h0v-0.2c0,0,0-0.1,0-0.1v-13.1
			h-16l-30.8-17.8l95.1-54.9c3.1-1.8,4.6-4.1,4.7-6.4h0L528.8,436.9z"/>
		
			<linearGradient id="SVGID_27_" gradientUnits="userSpaceOnUse" x1="238.6179" y1="245.5547" x2="486.6325" y2="102.3634" gradientTransform="matrix(1 0 0 -1 0 590)">
			<stop  offset="0" style="stop-color:#F5F5F5"/>
			<stop  offset="1" style="stop-color:#FFFFFF"/>
		</linearGradient>
		<path class="st39" d="M528.8,423.7c0,0.1,0,0.3,0,0.4c0,0.2,0,0.3-0.1,0.4c0,0.2-0.1,0.3-0.1,0.4c0,0.2-0.1,0.3-0.1,0.4
			c0,0.1-0.1,0.3-0.2,0.4c-0.2,0.5-0.4,0.9-0.7,1.3c-0.1,0.1-0.2,0.3-0.3,0.4c0,0,0,0,0,0c-0.9,1.1-2,2-3.2,2.6l-91.9,53l-3.2,1.9
			l11.5,6.6l27.6,16l0.1,0.1l2.8,1.6c3.1,1.8,4.7,4.2,4.8,6.6c0,0.1,0,0.1,0,0.2c0,0.1,0,0.3,0,0.4c0,0,0,0,0,0
			c-0.1,0.6-0.2,1.2-0.5,1.7c-0.1,0.3-0.3,0.7-0.5,1c-0.1,0.1-0.1,0.2-0.2,0.3c-0.1,0.1-0.2,0.3-0.3,0.4c-0.1,0.2-0.3,0.4-0.5,0.5
			c-0.1,0.1-0.2,0.2-0.3,0.3c-0.7,0.7-1.6,1.3-2.4,1.8l-30.4,17.5c-6.3,3.6-16.6,3.6-22.9,0L226.5,429.7c-1-0.6-2-1.3-2.8-2.2
			c-0.1-0.1-0.2-0.3-0.3-0.4c-0.1-0.1-0.2-0.2-0.3-0.3c0,0,0,0,0-0.1c-0.1-0.1-0.1-0.2-0.2-0.3c0,0-0.1-0.1-0.1-0.1
			c-0.1-0.1-0.1-0.2-0.2-0.3c0-0.1-0.1-0.1-0.1-0.2c0-0.1-0.1-0.2-0.1-0.2c-0.1-0.2-0.2-0.4-0.3-0.6c0-0.1-0.1-0.2-0.1-0.2
			c0-0.1,0-0.1-0.1-0.2c0-0.1,0-0.1-0.1-0.2c0-0.1,0-0.2-0.1-0.3c0,0,0-0.1,0-0.1c0-0.1,0-0.3-0.1-0.4c0-0.1,0-0.2,0-0.3
			c0-0.1,0-0.1,0-0.2c0,0,0-0.1,0-0.1c0-1.4,0.6-2.8,1.5-3.9c0.9-1.1,2-1.9,3.2-2.6l136.9-79c6.3-3.6,16.6-3.6,22.9,0L524.1,417
			C527.3,418.9,528.9,421.3,528.8,423.7z"/>
		
			<linearGradient id="SVGID_28_" gradientUnits="userSpaceOnUse" x1="221.74" y1="100.3295" x2="475.9218" y2="100.3295" gradientTransform="matrix(1 0 0 -1 0 590)">
			<stop  offset="0" style="stop-color:#CCCCCC"/>
			<stop  offset="0.1065" style="stop-color:#D9D9D9"/>
			<stop  offset="0.3756" style="stop-color:#D9D9D9"/>
			<stop  offset="0.8303" style="stop-color:#CCCCCC"/>
			<stop  offset="0.9033" style="stop-color:#FFFFFF"/>
			<stop  offset="0.9576" style="stop-color:#FFFFFF"/>
			<stop  offset="1" style="stop-color:#CCCCCC"/>
		</linearGradient>
		<path class="st40" d="M471.2,522.7l-30.4,17.5c-6.3,3.6-16.6,3.6-22.9,0L226.5,429.7c-3.2-1.8-4.8-4.2-4.8-6.6v13.1h0
			c-0.1,2.4,1.5,4.9,4.8,6.8l191.4,110.5c6.4,3.7,16.6,3.7,22.9,0l30.4-17.5c3.1-1.8,4.6-4.1,4.7-6.4h0v-0.2c0,0,0-0.1,0-0.1v-13.1
			h0C475.9,518.6,474.3,520.9,471.2,522.7z"/>
		
			<linearGradient id="SVGID_29_" gradientUnits="userSpaceOnUse" x1="429.0528" y1="132.2479" x2="528.8458" y2="132.2479" gradientTransform="matrix(1 0 0 -1 0 590)">
			<stop  offset="0" style="stop-color:#FFFFFF"/>
			<stop  offset="0.8156" style="stop-color:#FFFFFF"/>
			<stop  offset="1" style="stop-color:#CCCCCC"/>
		</linearGradient>
		<path class="st41" d="M524.1,430.3l-95.1,54.9l11.5,6.6l83.6-48.2c3.2-1.9,4.8-4.3,4.7-6.8h0v-13
			C528.8,426.1,527.3,428.5,524.1,430.3z"/>
		<polygon class="st42" points="454.8,500 463.5,495.2 449.1,482.2 434.1,482.2 429.1,485.1 		"/>
		<path class="st11" d="M471.1,509.4l-2.8-1.6l-0.1-0.1l-27.6-16l-11.5-6.6l3.2-1.9l-1.8-1.1l68.6-39.6l-1.7-3.8l-80.3,46.8
			l-7.5,1.9l-11.9,4.7l-16.4,9.1l-24.3-6.2L226.5,417l-3.3,2.1c-2.7,3.3-1.8,7.4,2.6,10.2l0.1,0l134.1,77.5c8.6,5,19.2,5,27.8,0
			l30.9-17.9l13.2,7.7l28.9,16.6c3.1,1.8,6.6,2.7,10.2,2.7h4.8C475.9,513.6,474.3,511.3,471.1,509.4z"/>
		
			<linearGradient id="SVGID_30_" gradientUnits="userSpaceOnUse" x1="221.7467" y1="170.2618" x2="529.1799" y2="170.2618" gradientTransform="matrix(1 0 0 -1 0 590)">
			<stop  offset="0" style="stop-color:#F5F5F5"/>
			<stop  offset="1" style="stop-color:#FFFFFF"/>
		</linearGradient>
		<path class="st43" d="M529.2,468.4H513l-30.7-17.7l41.8-24.1c3.2-1.9,4.8-4.3,4.7-6.8h0v-13.3h-16.6l-125.9-72.7
			c-6.4-3.7-16.6-3.7-22.9,0l-124.7,72h-16.9v13.5c0,0.1,0,0.2,0,0.3v0.2h0c0.2,2.3,1.7,4.5,4.8,6.3l137.8,79.5
			c6.4,3.7,16.6,3.7,22.9,0l41.8-24.1l42.1,24.3c6.4,3.7,16.6,3.7,22.9,0l30.4-17.5c3.1-1.8,4.7-4.2,4.7-6.6h0L529.2,468.4z"/>
		
			<linearGradient id="SVGID_31_" gradientUnits="userSpaceOnUse" x1="246.4519" y1="258.031" x2="496.0945" y2="113.8998" gradientTransform="matrix(1 0 0 -1 0 590)">
			<stop  offset="0" style="stop-color:#F5F5F5"/>
			<stop  offset="1" style="stop-color:#FFFFFF"/>
		</linearGradient>
		<path class="st44" d="M524.5,474.9l-30.4,17.5c-6.3,3.6-16.6,3.6-22.9,0l-42.1-24.3l-41.8,24.1c-6.3,3.6-16.6,3.6-22.9,0
			l-137.8-79.5c-6.4-3.7-6.4-9.6-0.1-13.2l136.9-79c6.3-3.6,16.6-3.6,22.9,0L524.1,400c6.4,3.7,6.4,9.6,0.1,13.2l-41.8,24.1
			l42.1,24.3C530.7,465.4,530.8,471.3,524.5,474.9z"/>
		
			<linearGradient id="SVGID_32_" gradientUnits="userSpaceOnUse" x1="482.3098" y1="164.6272" x2="528.8393" y2="164.6272" gradientTransform="matrix(1 0 0 -1 0 590)">
			<stop  offset="0" style="stop-color:#FFFFFF"/>
			<stop  offset="0.8156" style="stop-color:#FFFFFF"/>
			<stop  offset="1" style="stop-color:#CCCCCC"/>
		</linearGradient>
		<path class="st45" d="M524.1,413.2l-41.8,24.1l11.5,6.6l30.3-17.5c3.2-1.9,4.8-4.3,4.7-6.8h0v-13
			C528.8,409.1,527.3,411.4,524.1,413.2z"/>
		
			<linearGradient id="SVGID_33_" gradientUnits="userSpaceOnUse" x1="221.7352" y1="132.8138" x2="429.053" y2="132.8138" gradientTransform="matrix(1 0 0 -1 0 590)">
			<stop  offset="0" style="stop-color:#CCCCCC"/>
			<stop  offset="0.1065" style="stop-color:#D9D9D9"/>
			<stop  offset="0.3756" style="stop-color:#D9D9D9"/>
			<stop  offset="0.7528" style="stop-color:#CCCCCC"/>
			<stop  offset="0.8772" style="stop-color:#FFFFFF"/>
			<stop  offset="1" style="stop-color:#FFFFFF"/>
		</linearGradient>
		<path class="st46" d="M429.1,468.1l-41.8,24.1c-6.3,3.6-16.6,3.6-22.9,0l-137.8-79.5c-3.2-1.8-4.8-4.2-4.8-6.6v13.6h0
			c0.1,2.3,1.7,4.6,4.8,6.4l137.8,79.5c6.4,3.7,16.6,3.7,22.9,0l41.8-24.1L429.1,468.1z"/>
		
			<linearGradient id="SVGID_34_" gradientUnits="userSpaceOnUse" x1="429.0555" y1="101.6844" x2="529.1773" y2="101.6844" gradientTransform="matrix(1 0 0 -1 0 590)">
			<stop  offset="0" style="stop-color:#CCCCCC"/>
			<stop  offset="0.1065" style="stop-color:#D9D9D9"/>
			<stop  offset="0.3756" style="stop-color:#D9D9D9"/>
			<stop  offset="0.5271" style="stop-color:#CCCCCC"/>
			<stop  offset="0.6764" style="stop-color:#FFFFFF"/>
			<stop  offset="0.9279" style="stop-color:#FFFFFF"/>
			<stop  offset="1" style="stop-color:#CCCCCC"/>
		</linearGradient>
		<path class="st47" d="M529.2,468.5c0,2.3-1.6,4.7-4.7,6.5l-30.4,17.5c-6.3,3.6-16.6,3.6-22.9,0l-42.1-24.3v13.3l42.1,24.3
			c6.4,3.7,16.6,3.7,22.9,0l30.4-17.5c3.1-1.8,4.7-4.2,4.7-6.5h0v0c0,0,0-0.1,0-0.1L529.2,468.5L529.2,468.5z"/>
		<polygon class="st11" points="429.1,468.1 422.5,485.2 429.1,481.4 		"/>
		<polygon class="st42" points="522.7,460.7 535,452.1 502.3,434.5 487.3,434.5 482.3,437.4 		"/>
		<path class="st11" d="M524.4,461.7l-2.8-1.6l-0.1-0.1l-27.6-16l-11.5-6.6l3.2-1.9l-1.8-1l0,0l15.4-8.9l-1.7-3.8l-80.3,46.8
			l-7.5,1.9l-11.9,4.7l-16.4,9.1l-24.3-6.2L226.5,400l-3.3,2.1c-2.7,3.3-1.8,7.4,2.6,10.2l0.1,0l134.1,77.5c8.6,5,19.2,5,27.8,0
			l84.2-48.6l13.2,7.7l28.9,16.6c3.1,1.8,6.6,2.7,10.2,2.7h4.8C529.1,465.9,527.5,463.5,524.4,461.7z"/>
		
			<linearGradient id="SVGID_35_" gradientUnits="userSpaceOnUse" x1="243.0781" y1="252.1435" x2="533.7266" y2="84.3375" gradientTransform="matrix(1 0 0 -1 13.1199 581.3679)">
			<stop  offset="0" style="stop-color:#F5F5F5"/>
			<stop  offset="1" style="stop-color:#FFFFFF"/>
		</linearGradient>
		<path class="st48" d="M582.4,433.9c0,0,0-0.1,0-0.1v-13.1h-16.1l-180.1-104c-6.4-3.7-16.6-3.7-22.9,0l-125.1,72.2h-16.5v13.7h0
			c0.1,2.3,1.7,4.6,4.8,6.4l137.8,79.5c6.4,3.7,16.6,3.7,22.9,0l95.1-54.9l42.1,24.3c6.4,3.7,16.6,3.7,22.9,0l30.4-17.5
			C580.8,438.7,582.4,436.3,582.4,433.9L582.4,433.9L582.4,433.9z"/>
		
			<linearGradient id="SVGID_36_" gradientUnits="userSpaceOnUse" x1="241.2842" y1="261.8297" x2="492.2658" y2="116.9255" gradientTransform="matrix(1 0 0 -1 13.1199 581.3679)">
			<stop  offset="0" style="stop-color:#F5F5F5"/>
			<stop  offset="1" style="stop-color:#FFFFFF"/>
		</linearGradient>
		<path class="st49" d="M577.7,427.2l-30.4,17.5c-6.3,3.6-16.6,3.6-22.9,0l-42.1-24.3l-95.1,54.9c-6.3,3.6-16.6,3.6-22.9,0
			l-137.8-79.5c-6.4-3.7-6.4-9.6-0.1-13.2l136.9-79c6.3-3.6,16.6-3.6,22.9,0l191.4,110.5C584,417.6,584,423.5,577.7,427.2z"/>
		
			<linearGradient id="SVGID_37_" gradientUnits="userSpaceOnUse" x1="208.6169" y1="141.2035" x2="469.1912" y2="141.2035" gradientTransform="matrix(1 0 0 -1 13.1199 581.3679)">
			<stop  offset="0" style="stop-color:#CCCCCC"/>
			<stop  offset="0.1065" style="stop-color:#D9D9D9"/>
			<stop  offset="0.3756" style="stop-color:#D9D9D9"/>
			<stop  offset="0.5741" style="stop-color:#CCCCCC"/>
			<stop  offset="0.7252" style="stop-color:#FFFFFF"/>
			<stop  offset="1" style="stop-color:#FFFFFF"/>
		</linearGradient>
		<path class="st50" d="M482.3,420.4l-95.1,54.9c-6.3,3.6-16.6,3.6-22.9,0l-137.8-79.5c-3.2-1.8-4.8-4.2-4.8-6.6v13.6h0
			c0.1,2.3,1.7,4.6,4.8,6.4l137.8,79.5c6.4,3.7,16.6,3.7,22.9,0l95.1-54.9L482.3,420.4z"/>
		
			<linearGradient id="SVGID_38_" gradientUnits="userSpaceOnUse" x1="469.1911" y1="140.822" x2="569.3129" y2="140.822" gradientTransform="matrix(1 0 0 -1 13.1199 581.3679)">
			<stop  offset="0" style="stop-color:#CCCCCC"/>
			<stop  offset="0.1065" style="stop-color:#D9D9D9"/>
			<stop  offset="0.3756" style="stop-color:#D9D9D9"/>
			<stop  offset="0.5271" style="stop-color:#CCCCCC"/>
			<stop  offset="0.6764" style="stop-color:#FFFFFF"/>
			<stop  offset="0.9279" style="stop-color:#FFFFFF"/>
			<stop  offset="1" style="stop-color:#CCCCCC"/>
		</linearGradient>
		<path class="st51" d="M582.4,420.7c0,2.3-1.6,4.7-4.7,6.5l-30.4,17.5c-6.3,3.6-16.6,3.6-22.9,0l-42.1-24.3v13.3l42.1,24.3
			c6.4,3.7,16.6,3.7,22.9,0l30.4-17.5c3.1-1.8,4.7-4.2,4.7-6.5h0v0c0,0,0-0.1,0-0.1L582.4,420.7L582.4,420.7z"/>
		<polygon class="st11" points="482.3,420.4 475.8,437.4 482.3,433.7 		"/>
		<path class="st11" d="M518.8,389.4c2.2,1.3,2.9,4.1,1.6,6.2c-0.4,0.7-1,1.2-1.7,1.6l-130.9,75.6c-8.6,5-19.2,5-27.8,0L226,395.4
			l-0.1,0c-4.5-2.9-5.3-6.9-2.6-10.2l3.3-2.1l130.5,78.2l24.3,6.2l16.4-9.1l11.9-4.7l7.5-1.9l52.4-91.1L518.8,389.4z"/>
		
			<linearGradient id="SVGID_39_" gradientUnits="userSpaceOnUse" x1="333.2885" y1="282.3441" x2="417.4986" y2="136.4879" gradientTransform="matrix(1 0 0 -1 0 590)">
			<stop  offset="0" style="stop-color:#178CE6"/>
			<stop  offset="0.5" style="stop-color:#17B9E6"/>
		</linearGradient>
		<path class="st52" d="M527.8,372.1h-16.3l-125.8-72.6c-6.4-3.7-17.5-3.2-24.8,1l-124,71.6h-15.3v13.3h0c-0.1,2.4,1.3,4.7,4.3,6.4
			l137.8,79.5c6.4,3.7,17.5,3.2,24.8-1l133.2-76.9c3.9-2.3,6-5.2,6.1-8h0L527.8,372.1z"/>
		
			<linearGradient id="SVGID_40_" gradientUnits="userSpaceOnUse" x1="335.6809" y1="285.684" x2="423.4104" y2="133.7321" gradientTransform="matrix(1 0 0 -1 0 590)">
			<stop  offset="0" style="stop-color:#178CE6"/>
			<stop  offset="0.5" style="stop-color:#17B9E6"/>
		</linearGradient>
		<path class="st53" d="M363.8,457.9L226,378.4c-6.4-3.7-5.6-10.1,1.8-14.3L361,287.2c7.3-4.2,18.4-4.7,24.8-1l137.8,79.5
			c6.4,3.7,5.6,10.1-1.8,14.3l-133.2,76.9C381.2,461.2,370.1,461.6,363.8,457.9z"/>
		
			<linearGradient id="SVGID_41_" gradientUnits="userSpaceOnUse" x1="221.7413" y1="167.1145" x2="527.8514" y2="167.1145" gradientTransform="matrix(1 0 0 -1 0 590)">
			<stop  offset="0" style="stop-color:#CCCCCC"/>
			<stop  offset="0.1065" style="stop-color:#D9D9D9"/>
			<stop  offset="0.3756" style="stop-color:#D9D9D9"/>
			<stop  offset="0.4946" style="stop-color:#CCCCCC"/>
			<stop  offset="0.6156" style="stop-color:#FFFFFF"/>
			<stop  offset="0.9279" style="stop-color:#FFFFFF"/>
			<stop  offset="1" style="stop-color:#CCCCCC"/>
		</linearGradient>
		<path class="st54" d="M226,391.7l137.8,79.5c6.4,3.7,17.5,3.2,24.8-1l133.2-76.9c3.9-2.3,6-5.2,6.1-8h0v-13.3h0
			c-0.1,2.8-2.1,5.7-6.1,8l-133.2,76.9c-7.3,4.2-18.4,4.7-24.8,1L226,378.4c-2.9-1.7-4.3-4-4.3-6.4h0v13.3h0
			C221.7,387.7,223.1,390,226,391.7z"/>
		<g id="surface1" class="st3">
			
				<linearGradient id="SVGID_42_" gradientUnits="userSpaceOnUse" x1="351.1312" y1="261.0381" x2="400.3452" y2="175.7969" gradientTransform="matrix(1 0 0 -1 0 590)">
				<stop  offset="0" style="stop-color:#FFFFFF"/>
				<stop  offset="0.999" style="stop-color:#FFFFFF;stop-opacity:0.6"/>
			</linearGradient>
			<path class="st55" d="M424.9,343.2c-27.2-15.7-71.2-15.7-98.3,0c-21,12.1-25.7,30.1-14.1,44.9l39.1-10.2
				c-4.6-5.8-2.8-12.8,5.3-17.5c10.5-6.1,27.6-6,38.2,0.1s10.6,16,0.1,22c-8.2,4.7-20.3,5.7-30.3,3.1l-17.6,22.6
				c25.6,6.7,56.8,4,77.8-8.2C452.1,384.3,452,358.9,424.9,343.2z"/>
		</g>
		<g class="st19">
			
				<linearGradient id="SVGID_43_" gradientUnits="userSpaceOnUse" x1="334.5984" y1="287.559" x2="414.9858" y2="148.3239" gradientTransform="matrix(1 0 0 -1 0 590)">
				<stop  offset="0" style="stop-color:#FFFFFF;stop-opacity:0"/>
				<stop  offset="1" style="stop-color:#FFFFFF"/>
			</linearGradient>
			<path class="st56" d="M375,289.7L375,289.7c2.7-0.1,5.4,0.5,7.8,1.7l137.8,79.5c0.5,0.3,0.9,0.6,1.3,1.1
				c-0.1,0.3-0.8,1.5-3.1,2.9l-133.2,76.9c-3.4,1.8-7.2,2.7-11,2.7c-2.7,0.1-5.4-0.5-7.8-1.7L229,373.2c-0.5-0.3-0.9-0.6-1.3-1.1
				c0.1-0.3,0.8-1.5,3.1-2.9L364,292.4C367.4,290.6,371.2,289.6,375,289.7 M375,283.7c-4.9,0-9.7,1.2-14,3.5l-133.2,76.9
				c-7.3,4.2-8.1,10.6-1.8,14.3l137.8,79.5c3.3,1.7,7,2.6,10.8,2.5c4.9,0,9.7-1.2,14-3.5L521.8,380c7.3-4.2,8.1-10.6,1.8-14.3
				l-137.8-79.5C382.5,284.4,378.8,283.6,375,283.7L375,283.7z"/>
		</g>
		<g class="st19">
			
				<linearGradient id="SVGID_44_" gradientUnits="userSpaceOnUse" x1="334.5984" y1="287.559" x2="414.9858" y2="148.3239" gradientTransform="matrix(1 0 0 -1 0 590)">
				<stop  offset="0" style="stop-color:#0A3466"/>
				<stop  offset="1" style="stop-color:#0A3466;stop-opacity:0"/>
			</linearGradient>
			<path class="st57" d="M375,289.7L375,289.7c2.7-0.1,5.4,0.5,7.8,1.7l137.8,79.5c0.5,0.3,0.9,0.6,1.3,1.1
				c-0.1,0.3-0.8,1.5-3.1,2.9l-133.2,76.9c-3.4,1.8-7.2,2.7-11,2.7c-2.7,0.1-5.4-0.5-7.8-1.7L229,373.2c-0.5-0.3-0.9-0.6-1.3-1.1
				c0.1-0.3,0.8-1.5,3.1-2.9L364,292.4C367.4,290.6,371.2,289.6,375,289.7 M375,283.7c-4.9,0-9.7,1.2-14,3.5l-133.2,76.9
				c-7.3,4.2-8.1,10.6-1.8,14.3l137.8,79.5c3.3,1.7,7,2.6,10.8,2.5c4.9,0,9.7-1.2,14-3.5L521.8,380c7.3-4.2,8.1-10.6,1.8-14.3
				l-137.8-79.5C382.5,284.4,378.8,283.6,375,283.7L375,283.7z"/>
		</g>
		<polygon class="st5" points="618.1,194.8 539,149.1 539,140.1 618.1,185.8 		"/>
		<polygon class="st5" points="619.4,175.7 540.2,130 540.2,121 619.4,166.7 		"/>
		<polygon class="st5" points="620.8,156.2 541.7,110.5 541.7,101.5 620.8,147.2 		"/>
		<polygon class="st5" points="197.5,159.9 118.4,205.6 118.4,196.6 197.5,150.9 		"/>
		<polygon class="st5" points="197.5,141.3 118.4,187 118.4,178 197.5,132.3 		"/>
		<polygon class="st5" points="197.5,123.8 118.4,169.5 118.4,160.5 197.5,114.8 		"/>
	</g>
</g>
</svg>
