<?xml version="1.0" standalone="no"?><!DOCTYPE svg PUBLIC "-//W3C//DTD SVG 1.1//EN" "http://www.w3.org/Graphics/SVG/1.1/DTD/svg11.dtd"><svg t="1511452918103" class="icon" style="" viewBox="0 0 1024 1024" version="1.1" xmlns="http://www.w3.org/2000/svg" p-id="1911" xmlns:xlink="http://www.w3.org/1999/xlink" width="36" height="36"><defs><style type="text/css"></style></defs><path d="M782.848 524.48h-339.84a49.28 49.28 0 0 1-50.176-48.512 49.28 49.28 0 0 1 50.176-48.512h339.84a49.28 49.28 0 0 1 50.176 48.512c0 26.816-22.656 48.512-50.176 48.512z m0 192.064h-339.84c-27.776 0-50.176-21.696-50.176-48.512s22.4-48.512 50.176-48.512h339.84c27.776 0 50.176 21.696 50.176 48.512s-22.656 48.512-50.176 48.512zM1024 878.528V267.648c0-74.56-85.312-81.472-85.312-81.472s-406.4 0.384-384 0c-23.936 0.448-44.608-4.48-44.608-4.48s-16.64-27.84-46.784-71.616c-31.424-46.08-67.904-38.656-67.904-38.656L85.312 64C-0.32 64 0 151.168 0 151.168v720.064C0 960 85.312 960 85.312 960h853.312C1012.992 960 1024 878.528 1024 878.528z m-85.312-40.704c0 27.456-14.272 40.704-42.688 40.704H128c-28.416 0-42.688-13.248-42.688-40.704V308.352c0-27.456 14.272-40.704 42.688-40.704h768c28.416 0 42.688 13.248 42.688 40.704v529.472zM202.944 475.968c0 28.608 24 51.84 53.632 51.84 29.632 0 53.632-23.232 53.632-51.84 0-28.608-24-51.84-53.632-51.84-29.632 0-53.632 23.232-53.632 51.84z m0 192.064c0 28.608 24 51.84 53.632 51.84 29.632 0 53.632-23.232 53.632-51.84s-24-51.84-53.632-51.84a52.736 52.736 0 0 0-53.632 51.84z" fill="#888888" p-id="1912"></path></svg>