<?xml version="1.0" standalone="no"?><!DOCTYPE svg PUBLIC "-//W3C//DTD SVG 1.1//EN" "http://www.w3.org/Graphics/SVG/1.1/DTD/svg11.dtd"><svg t="1511453032962" class="icon" style="" viewBox="0 0 1024 1024" version="1.1" xmlns="http://www.w3.org/2000/svg" p-id="5251" xmlns:xlink="http://www.w3.org/1999/xlink" width="36" height="36"><defs><style type="text/css"></style></defs><path d="M508.881455 4.701091c69.748364-0.768 135.284364 11.869091 196.631273 37.934545 61.300364 26.065455 115.176727 61.533091 161.512727 106.356364 46.382545 44.846545 82.944 97.722182 109.824 158.650182 26.833455 60.951273 40.610909 126.277818 41.378909 196.049455 0.744727 65.931636-10.542545 128-33.931636 186.228364-23.365818 58.274909-55.924364 109.824-97.722182 154.670545-41.751273 44.823273-90.833455 81.826909-147.153455 110.964364-56.343273 29.114182-117.085091 47.127273-182.225455 54.016-16.896 2.304-34.909091 4.212364-54.062545 5.771636-19.153455 1.512727-40.424727 2.676364-63.813818 3.421091-23.365818 0.768-49.454545 0.768-78.173091 0-28.741818-0.744727-61.137455-3.095273-97.163636-6.912-79.709091-7.656727-138.938182-17.640727-177.640727-29.882182-38.725818-12.264727-54.225455-19.153455-46.568727-20.712727 40.634182-6.888727 75.496727-17.989818 104.634182-33.349818 15.313455-8.424727 21.643636-20.503273 18.944-36.212364-2.676364-15.709091-10.146909-30.487273-22.411636-44.264727-39.098182-42.914909-70.702545-92.928-94.859636-150.039273-24.133818-57.088-36.980364-118.621091-38.516364-184.529455-0.768-69.748364 11.892364-135.284364 37.934545-196.608 26.065455-61.323636 61.696-114.967273 106.914909-160.954182 45.218909-46.010182 98.490182-82.408727 159.813818-109.218909C373.597091 19.269818 439.109818 5.445818 508.881455 4.701091L508.881455 4.701091zM733.067636 510.580364c0 19.921455 6.888727 36.980364 20.736 51.176727 13.777455 14.173091 30.603636 21.248 50.571636 21.248 19.898182 0 36.980364-7.074909 51.176727-21.248 14.173091-14.173091 21.248-31.232 21.248-51.176727s-7.074909-36.794182-21.248-50.571636c-14.196364-13.800727-31.278545-20.689455-51.176727-20.689455-19.944727 0-36.794182 6.888727-50.571636 20.689455C739.956364 473.786182 733.067636 490.658909 733.067636 510.580364L733.067636 510.580364zM444.485818 510.580364c0 19.921455 7.284364 37.189818 21.853091 51.758545 14.545455 14.545455 31.790545 21.829818 51.735273 21.829818 20.712727 0 38.144-7.284364 52.317091-21.829818 14.173091-14.568727 21.248-31.837091 21.248-51.758545 0-20.689455-7.074909-38.120727-21.248-52.317091-14.173091-14.149818-31.604364-21.248-52.317091-21.248-19.921455 0-37.189818 7.098182-51.735273 21.248C451.770182 472.459636 444.485818 489.890909 444.485818 510.580364L444.485818 510.580364zM159.348364 509.44c0 19.921455 7.074909 37.189818 21.271273 51.735273 14.173091 14.568727 31.232 21.829818 51.153455 21.829818 20.689455 0 38.120727-7.284364 52.317091-21.829818 14.173091-14.545455 21.271273-31.790545 21.271273-51.735273s-7.098182-36.980364-21.271273-51.176727c-14.173091-14.149818-31.604364-21.248-52.317091-21.248-19.921455 0-36.980364 7.098182-51.153455 21.248C166.423273 472.459636 159.348364 489.495273 159.348364 509.44L159.348364 509.44z" p-id="5252" fill="#888888"></path></svg>