<svg id="Layer_3" data-name="Layer 3" xmlns="http://www.w3.org/2000/svg" xmlns:xlink="http://www.w3.org/1999/xlink" viewBox="0 0 2000 700"><defs><linearGradient id="linear-gradient" x1="0.92717" y1="700.5353" x2="3.46031" y2="696.14777" gradientUnits="userSpaceOnUse"><stop offset="0" stop-color="#fff" stop-opacity="0"/><stop offset="1" stop-color="#fff"/></linearGradient><linearGradient id="linear-gradient-2" x1="19.74732" y1="688.04729" x2="35.95767" y2="659.97013" xlink:href="#linear-gradient"/><linearGradient id="linear-gradient-3" x1="-15.20774" y1="603.28981" x2="24.35232" y2="534.76978" xlink:href="#linear-gradient"/><linearGradient id="linear-gradient-4" x1="42.3527" y1="695.23265" x2="105.10342" y2="586.54521" xlink:href="#linear-gradient"/><linearGradient id="linear-gradient-5" x1="82.3489" y1="681.17196" x2="200.0711" y2="477.27111" xlink:href="#linear-gradient"/><linearGradient id="linear-gradient-6" x1="77.00845" y1="330.61573" x2="206.39465" y2="106.51228" xlink:href="#linear-gradient"/><linearGradient id="linear-gradient-7" x1="376.35222" y1="629.40289" x2="509.85621" y2="398.16719" xlink:href="#linear-gradient"/><linearGradient id="linear-gradient-8" x1="141.01317" y1="154.32094" x2="196.6278" y2="57.99357" xlink:href="#linear-gradient"/><linearGradient id="linear-gradient-9" x1="472.19294" y1="546.00507" x2="579.25326" y2="360.57115" xlink:href="#linear-gradient"/><linearGradient id="linear-gradient-10" x1="242.2728" y1="169.47257" x2="302.10087" y2="65.84731" xlink:href="#linear-gradient"/><linearGradient id="linear-gradient-11" x1="577.66599" y1="553.86454" x2="680.51859" y2="375.7186" xlink:href="#linear-gradient"/><linearGradient id="linear-gradient-12" x1="85.57689" y1="145.66843" x2="144.14645" y2="44.22299" xlink:href="#linear-gradient"/><linearGradient id="linear-gradient-13" x1="407.30168" y1="541.96286" x2="529.06721" y2="331.05878" xlink:href="#linear-gradient"/><linearGradient id="linear-gradient-14" x1="94.86232" y1="493.16034" x2="163.27468" y2="374.66664" xlink:href="#linear-gradient"/><linearGradient id="linear-gradient-15" x1="302.82192" y1="665.64298" x2="345.77457" y2="591.24681" xlink:href="#linear-gradient"/><linearGradient id="linear-gradient-16" x1="104.05434" y1="414.4483" x2="159.87511" y2="317.7639" xlink:href="#linear-gradient"/><linearGradient id="linear-gradient-17" x1="342.4064" y1="635.45593" x2="385.71092" y2="560.45029" xlink:href="#linear-gradient"/><linearGradient id="linear-gradient-18" x1="316.16032" y1="40.39885" x2="340.11595" y2="-1.09353" xlink:href="#linear-gradient"/><linearGradient id="linear-gradient-19" x1="615.68107" y1="486.92374" x2="754.40691" y2="246.64354" xlink:href="#linear-gradient"/><linearGradient id="linear-gradient-20" x1="417.42465" y1="55.54769" x2="445.58884" y2="6.76588" xlink:href="#linear-gradient"/><linearGradient id="linear-gradient-21" x1="721.15241" y1="494.78225" x2="855.66713" y2="261.79592" xlink:href="#linear-gradient"/><linearGradient id="linear-gradient-22" x1="530.40808" y1="96.2011" x2="561.66486" y2="42.06277" xlink:href="#linear-gradient"/><linearGradient id="linear-gradient-23" x1="843.92326" y1="512.62287" x2="953.05379" y2="323.60324" xlink:href="#linear-gradient"/><linearGradient id="linear-gradient-24" x1="812.83684" y1="488.80344" x2="973.11572" y2="211.19226" xlink:href="#linear-gradient"/><linearGradient id="linear-gradient-25" x1="636.53382" y1="110.81074" x2="716.94783" y2="-28.4704" xlink:href="#linear-gradient"/><linearGradient id="linear-gradient-26" x1="962.4217" y1="538.0196" x2="1144.8959" y2="221.96502" xlink:href="#linear-gradient"/><linearGradient id="linear-gradient-27" x1="253.61713" y1="27.63973" x2="278.3662" y2="-15.22692" xlink:href="#linear-gradient"/><linearGradient id="linear-gradient-28" x1="551.7418" y1="483.42541" x2="701.48069" y2="224.07004" xlink:href="#linear-gradient"/><linearGradient id="linear-gradient-29" x1="1254.28209" y1="484.96133" x2="1438.18846" y2="166.42614" xlink:href="#linear-gradient"/><linearGradient id="linear-gradient-30" x1="1474.35174" y1="473.34488" x2="1616.78064" y2="226.65079" xlink:href="#linear-gradient"/><linearGradient id="linear-gradient-31" x1="1560.19558" y1="469.86561" x2="1702.62198" y2="223.17585" xlink:href="#linear-gradient"/><linearGradient id="linear-gradient-32" x1="1427.44436" y1="479.67986" x2="1577.18326" y2="220.32448" xlink:href="#linear-gradient"/><linearGradient id="linear-gradient-33" x1="1097.77554" y1="473.34704" x2="1240.20194" y2="226.65729" xlink:href="#linear-gradient"/><linearGradient id="linear-gradient-34" x1="1175.79306" y1="465.34931" x2="1308.98696" y2="234.65071" xlink:href="#linear-gradient"/><linearGradient id="linear-gradient-35" x1="2123.84944" y1="868.5124" x2="2202.80497" y2="731.75743" gradientTransform="translate(1049.15704 -1824.57377) rotate(90)" xlink:href="#linear-gradient"/><linearGradient id="linear-gradient-36" x1="-13.92385" y1="604.03107" x2="23.40457" y2="539.37636" xlink:href="#linear-gradient"/><linearGradient id="linear-gradient-37" x1="2179.03957" y1="641.50164" x2="2199.29194" y2="606.42351" gradientTransform="translate(1015.82797 -1956.71436) rotate(90)" xlink:href="#linear-gradient"/><linearGradient id="linear-gradient-38" x1="2081.54445" y1="706.45981" x2="2101.79681" y2="671.38168" gradientTransform="translate(965.91431 -1882.22633) rotate(90)" xlink:href="#linear-gradient"/><linearGradient id="linear-gradient-39" x1="2000.39676" y1="746.00192" x2="2030.98921" y2="693.01425" gradientTransform="translate(921.14883 -1838.34448) rotate(90)" xlink:href="#linear-gradient"/><linearGradient id="linear-gradient-40" x1="2310.68143" y1="972.74411" x2="2330.9338" y2="937.66598" gradientTransform="translate(1205.93149 -1761.04757) rotate(90)" xlink:href="#linear-gradient"/><linearGradient id="linear-gradient-41" x1="2280.25484" y1="909.53334" x2="2287.44806" y2="897.07431" gradientTransform="translate(1164.59803 -1786.92306) rotate(90)" xlink:href="#linear-gradient"/><linearGradient id="linear-gradient-42" x1="686.29997" y1="139.54325" x2="765.25928" y2="2.78172" xlink:href="#linear-gradient"/><linearGradient id="linear-gradient-43" x1="2108.19448" y1="467.67878" x2="2128.44685" y2="432.60065" gradientTransform="translate(914.82139 -2058.87563) rotate(90)" xlink:href="#linear-gradient"/><linearGradient id="linear-gradient-44" x1="2010.69936" y1="532.63696" x2="2030.95172" y2="497.55883" gradientTransform="translate(864.90774 -1984.38761) rotate(90)" xlink:href="#linear-gradient"/><linearGradient id="linear-gradient-45" x1="260.11213" y1="31.38962" x2="284.8612" y2="-11.47703" xlink:href="#linear-gradient"/><linearGradient id="linear-gradient-46" x1="2276.65443" y1="404.46802" x2="2283.84766" y2="392.00899" gradientTransform="translate(1014.12195 -2143.00365) rotate(90)" xlink:href="#linear-gradient"/></defs><title>cm-flows-header</title><polygon points="5.85 700 0 700 0 694.15 5.85 700" opacity="0.1" fill="url(#linear-gradient)"/><polygon points="0 639.21 60.79 700 40.45 700 0 659.55 0 639.21" opacity="0.1" fill="url(#linear-gradient-2)"/><path d="M16.48,601.52v.01A45.22425,45.22425,0,0,1,0,612.07V520.71l16.48,16.48A45.47766,45.47766,0,0,1,16.48,601.52Z" opacity="0.1" fill="url(#linear-gradient-3)"/><path d="M179.29,700H50.61L0,649.39V526.64a45.12015,45.12015,0,0,1,16.48,10.55Z" opacity="0.1" fill="url(#linear-gradient-4)"/><polygon points="338.24 700 114.96 700 16.48 601.53 16.48 601.52 0 585.04 0 361.76 338.24 700" opacity="0.1" fill="url(#linear-gradient-5)"/><path d="M327.58,346.54A78.94591,78.94591,0,0,1,193.2,394.57L0,201.37V0H21.91L222.04,200.13l82.8,82.8A78.782,78.782,0,0,1,327.58,346.54Z" opacity="0.1" fill="url(#linear-gradient-6)"/><path d="M721.91,700H498.63L193.2,394.57A78.94141,78.94141,0,1,1,304.84,282.93Z" opacity="0.1" fill="url(#linear-gradient-7)"/><path d="M291.31,223.76a20.2372,20.2372,0,0,1-28.63,0l-33.37-33.37-40.72-40.72L38.92,0H96.18L291.31,195.13A20.2372,20.2372,0,0,1,291.31,223.76Z" opacity="0.1" fill="url(#linear-gradient-8)"/><path d="M796.18,700H738.92L262.68,223.76a20.24447,20.24447,0,0,1,28.63-28.63Z" opacity="0.1" fill="url(#linear-gradient-9)"/><path d="M406.18,246.77a20.23709,20.23709,0,0,1-28.63,0L130.78,0h57.27L406.18,218.13A20.2491,20.2491,0,0,1,406.18,246.77Z" opacity="0.1" fill="url(#linear-gradient-10)"/><path d="M888.05,700H830.78L377.55,246.77a20.248,20.248,0,1,1,28.63-28.64Z" opacity="0.1" fill="url(#linear-gradient-11)"/><path d="M229.31,190.39a30.38581,30.38581,0,0,1-6.04,8.59c-.4.4-.81.79-1.23,1.15a30.58215,30.58215,0,0,1-42.03-1.15L0,18.97V0H67.55L223.27,155.72A30.6011,30.6011,0,0,1,229.31,190.39Z" opacity="0.1" fill="url(#linear-gradient-12)"/><path d="M767.55,700H681.03L327.58,346.55v-.01l-86.36-86.35-61.21-61.21a30.58209,30.58209,0,0,1-1.15-42.03c.36-.42.75-.83,1.15-1.23a30.54448,30.54448,0,0,1,43.26,0l39.41,39.41Z" opacity="0.1" fill="url(#linear-gradient-13)"/><path d="M265.04,574.08a20.23709,20.23709,0,0,1-28.63,0L0,337.67V280.4L265.04,545.44A20.2491,20.2491,0,0,1,265.04,574.08Z" opacity="0.1" fill="url(#linear-gradient-14)"/><path d="M419.6,700H362.33L236.41,574.08a20.248,20.248,0,0,1,28.63-28.64Z" opacity="0.1" fill="url(#linear-gradient-15)"/><path d="M266.38,502.01a7.18831,7.18831,0,0,1-10.17,0L0,245.8V225.46L266.38,491.84A7.18838,7.18838,0,0,1,266.38,502.01Z" opacity="0.1" fill="url(#linear-gradient-16)"/><path d="M474.54,700H454.2L256.21,502.01a7.19129,7.19129,0,0,1,10.17-10.17Z" opacity="0.1" fill="url(#linear-gradient-17)"/><path d="M364.13,50.76a20.26743,20.26743,0,0,1-28.64,0L284.73,0h57.28l22.12,22.12A20.24928,20.24928,0,0,1,364.13,50.76Z" opacity="0.1" fill="url(#linear-gradient-18)"/><path d="M1042.01,700H984.74L335.49,50.76a20.25155,20.25155,0,0,1,28.64-28.64Z" opacity="0.1" fill="url(#linear-gradient-19)"/><path d="M479,73.76a20.24928,20.24928,0,0,1-28.64,0L376.6,0h57.27L479,45.13A20.2372,20.2372,0,0,1,479,73.76Z" opacity="0.1" fill="url(#linear-gradient-20)"/><path d="M1133.87,700H1076.6L450.36,73.76A20.248,20.248,0,1,1,479,45.13Z" opacity="0.1" fill="url(#linear-gradient-21)"/><path d="M620.97,142.33a7.1882,7.1882,0,0,1-10.17,0L468.47,0h20.34L620.97,132.16A7.1882,7.1882,0,0,1,620.97,142.33Z" opacity="0.1" fill="url(#linear-gradient-22)"/><path d="M1188.81006,700H1168.47L610.8,142.33a7.19126,7.19126,0,0,1,10.17-10.17Z" opacity="0.1" fill="url(#linear-gradient-23)"/><polygon points="1307.32 700 1178.64 700 610.8 132.16 478.63 0 607.32 0 1307.32 700" opacity="0.1" fill="url(#linear-gradient-24)"/><path d="M781.6,126.98a78.91147,78.91147,0,0,1-111.64,0L542.98,0H766.26L781.6,15.34A78.93873,78.93873,0,0,1,781.6,126.98Z" opacity="0.1" fill="url(#linear-gradient-25)"/><path d="M1466.26,700H1242.98L669.96,126.98A78.97939,78.97939,0,0,1,691.57,0h68.42A78.68469,78.68469,0,0,1,781.6,15.34Z" opacity="0.1" fill="url(#linear-gradient-26)"/><path d="M302.12,17.39a30.16482,30.16482,0,0,1-6.03,8.58,30.582,30.582,0,0,1-43.26,0L226.86,0h77.88A30.588,30.588,0,0,1,302.12,17.39Z" opacity="0.1" fill="url(#linear-gradient-27)"/><path d="M1013.37,700H926.86L252.83,25.97A30.51049,30.51049,0,0,1,244.18,0h69.2l22.11,22.12Z" opacity="0.1" fill="url(#linear-gradient-28)"/><path d="M1758.71,649.65a78.63712,78.63712,0,0,1-22.74,48.04c-.79.79-1.59,1.56-2.40991,2.31H1626.74c-.82007-.75-1.62-1.52-2.40991-2.31L926.64,0h223.28992l586.04,586.04A78.782,78.782,0,0,1,1758.71,649.65Z" opacity="0.1" fill="url(#linear-gradient-29)"/><polygon points="1924.2 700 1866.93 700 1166.93 0 1224.21 0 1924.2 700" opacity="0.1" fill="url(#linear-gradient-30)"/><polygon points="2000 683.93 2000 700 1958.8 700 1258.8 0 1316.07 0 2000 683.93" opacity="0.1" fill="url(#linear-gradient-31)"/><polygon points="1895.57 700 1809.05 700 1758.71 649.65 1109.06 0 1195.57 0 1895.57 700" opacity="0.1" fill="url(#linear-gradient-32)"/><polygon points="1547.63 700 1490.35 700 790.35 0 847.62 0 1547.63 700" opacity="0.1" fill="url(#linear-gradient-33)"/><polygon points="1602.56 700 1582.22 700 882.22 0 902.56 0 1602.56 700" opacity="0.1" fill="url(#linear-gradient-34)"/><g opacity="0.1"><circle cx="249.02212" cy="338.75343" r="78.94234" transform="translate(-166.59796 275.30382) rotate(-45)" fill="url(#linear-gradient-35)"/><path d="M16.48,601.52v.01A45.22425,45.22425,0,0,1,0,612.07V526.64a45.12015,45.12015,0,0,1,16.48,10.55A45.47766,45.47766,0,0,1,16.48,601.52Z" fill="url(#linear-gradient-36)"/><circle cx="391.8654" cy="232.45139" r="20.24899" transform="translate(-49.59324 345.17412) rotate(-45)" fill="url(#linear-gradient-37)"/><circle cx="276.99357" cy="209.4443" r="20.24899" transform="translate(-66.96994 257.20884) rotate(-45)" fill="url(#linear-gradient-38)"/><circle cx="201.64074" cy="177.3485" r="30.58734" transform="translate(-66.34512 194.52571) rotate(-45)" fill="url(#linear-gradient-39)"/><circle cx="250.72645" cy="559.76004" r="20.24899" transform="translate(-322.37404 341.24029) rotate(-45)" fill="url(#linear-gradient-40)"/><circle cx="261.2942" cy="496.92839" r="7.19202" transform="translate(-274.85013 330.30985) rotate(-45)" fill="url(#linear-gradient-41)"/><path d="M781.6,126.98A78.9414,78.9414,0,1,1,691.57,0h68.42A78.97939,78.97939,0,0,1,781.6,126.98Z" fill="url(#linear-gradient-42)"/><circle cx="464.68167" cy="59.44503" r="20.24899" transform="translate(94.06813 345.99061) rotate(-45)" fill="url(#linear-gradient-43)"/><circle cx="349.80984" cy="36.43793" r="20.24899" transform="translate(76.69142 258.02533) rotate(-45)" fill="url(#linear-gradient-44)"/><path d="M302.12,17.39a30.16482,30.16482,0,0,1-6.03,8.58A30.58946,30.58946,0,0,1,244.18,0h60.56A30.588,30.588,0,0,1,302.12,17.39Z" fill="url(#linear-gradient-45)"/><circle cx="615.88344" cy="137.2474" r="7.19202" transform="translate(83.33952 475.69419) rotate(-45)" fill="url(#linear-gradient-46)"/></g></svg>