<?xml version="1.0" encoding="utf-8"?>
<!-- Generator: Adobe Illustrator 21.1.0, SVG Export Plug-In . SVG Version: 6.00 Build 0)  -->
<svg version="1.1" id="Layer_1" xmlns="http://www.w3.org/2000/svg" xmlns:xlink="http://www.w3.org/1999/xlink" x="0px" y="0px"
	 viewBox="0 0 180.6 206.7" style="enable-background:new 0 0 180.6 206.7;" xml:space="preserve">
<style type="text/css">
	.st0{fill:url(#SVGID_1_);}
	.st1{opacity:0.6;}
	.st2{fill:#D9D9D9;}
	.st3{fill:#FFFFFF;}
	.st4{fill:#F5F5F5;}
	.st5{fill:#CCCCCC;}
	.st6{opacity:0.8;}
	.st7{fill:#17E696;}
</style>
<linearGradient id="SVGID_1_" gradientUnits="userSpaceOnUse" x1="45.1556" y1="24.4172" x2="135.4781" y2="180.8604" gradientTransform="matrix(1 0 0 -1 0 206)">
	<stop  offset="0" style="stop-color:#17B9E6"/>
	<stop  offset="1" style="stop-color:#82D9B8"/>
</linearGradient>
<path class="st0" d="M180.6,54.7V152c0,2.2-1.2,4.1-3,5.2l-84.3,48.7c-1.9,1.1-4.2,1.1-6,0L3,157.2c-1.9-1.1-3-3.1-3-5.2V54.7
	c0-2.2,1.1-4.1,3-5.2L87.3,0.8c1.9-1.1,4.2-1.1,6,0l84.3,48.7C179.5,50.5,180.6,52.5,180.6,54.7z"/>
<g class="st1">
	<polygon class="st2" points="44.2,65.3 48.9,68 48.9,160.3 44.2,157.5 	"/>
	<polygon class="st3" points="105.8,110.9 105.8,35.2 48.9,68 48.9,143.8 	"/>
	<polygon class="st4" points="105.8,35.2 101,32.4 44.2,65.3 48.9,68 	"/>
	<polygon class="st4" points="105.8,127.4 105.8,110.9 48.9,143.8 48.9,160.3 	"/>
	<polygon class="st2" points="48.9,160.3 48.9,143.8 44.2,141 44.2,157.5 	"/>
	<polygon class="st5" points="54.5,149.8 56,146.9 53,148.7 	"/>
</g>
<g class="st6">
	<polygon class="st2" points="58.2,73.4 62.9,76 62.9,168.3 58.2,165.6 	"/>
	<polygon class="st3" points="119.8,119 119.8,43.2 62.9,76 62.9,151.8 	"/>
	<polygon class="st4" points="119.8,43.2 115.1,40.5 58.2,73.4 62.9,76 	"/>
	<polygon class="st4" points="119.8,135.5 119.8,119 62.9,151.8 62.9,168.3 	"/>
	<polygon class="st2" points="62.9,168.3 62.9,151.8 58.2,149.1 58.2,165.6 	"/>
	<polygon class="st5" points="68.5,157.9 70,155 67,156.7 	"/>
</g>
<g>
	<polygon class="st2" points="72.2,81.5 77,84.1 77,176.4 72.2,173.7 	"/>
	<polygon class="st3" points="133.8,127.1 133.8,51.3 77,84.1 77,159.9 	"/>
	<polygon class="st4" points="133.8,51.3 129.1,48.6 72.2,81.5 77,84.1 	"/>
	<polygon class="st4" points="133.8,143.6 133.8,127.1 77,159.9 77,176.4 	"/>
	<polygon class="st2" points="77,176.4 77,159.9 72.2,157.2 72.2,173.7 	"/>
	<polygon class="st5" points="130.4,140.1 130.4,134.5 95.5,154.7 95.5,160.3 	"/>
	<polygon class="st5" points="82.5,165.9 84,163.1 81.1,164.8 	"/>
	<path class="st7" d="M119.8,99.5c0,0.4-0.2,0.8-0.5,1.1l-3.5,2.6c-0.2,0.8-0.4,1.6-0.7,2.4c0.6,0.7,1.3,1.3,2,1.8
		c0.1,0.1,0.2,0.3,0.2,0.4c0,0.2-0.1,0.4-0.2,0.6c-0.5,1-3,5.6-3.6,6c-0.1,0.1-0.3,0.1-0.5,0.1l-2.6-0.8c-0.5,0.6-1.1,1.2-1.7,1.8
		c-0.1,1.4-0.3,2.9-0.5,4.3c-0.1,0.4-0.3,0.8-0.7,1l-4.2,2.4c-0.3,0.2-0.6,0.1-0.7-0.3l-0.5-3.7c-0.6,0.1-1.1,0.2-1.7,0.2l-2.7,3.8
		c-0.1,0.2-0.3,0.3-0.5,0.4c-0.1,0.1-0.3,0.1-0.5,0.1c-0.6-0.3-3.2-1.5-3.2-2.3c0-0.2,0.1-0.4,0.2-0.6c0.7-1.4,1.3-2.7,2-4.1
		c-0.3-0.5-0.6-1.1-0.8-1.7l-3.4,1.4c-0.3,0.1-0.5-0.1-0.5-0.4v-4.8c0-0.4,0.2-0.8,0.5-1.1l3.5-2.6c0.2-0.8,0.4-1.6,0.7-2.4
		c-0.6-0.7-1.3-1.3-2-1.8c-0.1-0.1-0.2-0.3-0.2-0.4c0-0.2,0.1-0.4,0.2-0.6c0.5-1,3-5.6,3.6-5.9c0.1-0.1,0.3-0.1,0.5-0.1l2.6,0.8
		c0.5-0.6,1.1-1.3,1.7-1.8c0.1-1.4,0.3-2.9,0.5-4.3c0.1-0.4,0.3-0.8,0.7-1l4.2-2.4c0.3-0.2,0.6-0.1,0.7,0.3l0.5,3.7
		c0.6-0.1,1.1-0.2,1.7-0.2l2.7-3.8c0.1-0.2,0.3-0.3,0.5-0.4c0.1-0.1,0.3-0.1,0.5-0.1c0.6,0.3,3.2,1.5,3.2,2.3c0,0.2-0.1,0.4-0.2,0.6
		c-0.7,1.4-1.3,2.7-2,4.1c0.3,0.5,0.6,1.1,0.8,1.7l3.4-1.4c0.3-0.1,0.5,0.1,0.5,0.5L119.8,99.5z M105.4,98.7
		c-3.4,2.2-5.5,5.9-5.8,10c0,3.7,2.6,5.1,5.8,3.3c3.4-2.2,5.5-5.9,5.8-10C111.2,98.4,108.6,96.9,105.4,98.7z"/>
</g>
</svg>
