<?xml version="1.0" standalone="no"?><!DOCTYPE svg PUBLIC "-//W3C//DTD SVG 1.1//EN" "http://www.w3.org/Graphics/SVG/1.1/DTD/svg11.dtd"><svg t="1511453356906" class="icon" style="" viewBox="0 0 1024 1024" version="1.1" xmlns="http://www.w3.org/2000/svg" p-id="7111" xmlns:xlink="http://www.w3.org/1999/xlink" width="36" height="36"><defs><style type="text/css"></style></defs><path d="M512 914.285714C310.016 914.285714 146.285714 750.555429 146.285714 548.571429S310.016 182.857143 512 182.857143s365.714286 163.730286 365.714286 365.714286a364.946286 364.946286 0 0 1-69.851429 215.04 367.36 367.36 0 0 1-128.365714 110.153142A364.141714 364.141714 0 0 1 512 914.285714z m0-73.142857a292.571429 292.571429 0 1 0 0-585.142857 292.571429 292.571429 0 0 0 0 585.142857z" fill="#BBBBBB" p-id="7112"></path><path d="M512 365.714286a146.285714 146.285714 0 1 1 0-292.571429 146.285714 146.285714 0 0 1 0 292.571429zM219.428571 877.714286a146.285714 146.285714 0 1 1 0-292.571429 146.285714 146.285714 0 0 1 0 292.571429zM804.571429 877.714286a146.285714 146.285714 0 1 1 0-292.571429 146.285714 146.285714 0 0 1 0 292.571429z" fill="#888888" p-id="7113"></path></svg>